<svg width="500" height="362" viewBox="0 0 500 362" fill="none" xmlns="http://www.w3.org/2000/svg">
<path d="M500 327.4H0V327.65H500V327.4Z" fill="#EBEBEB"/>
<path d="M449.9 343.49H429.83V343.74H449.9V343.49Z" fill="#EBEBEB"/>
<path d="M389.5 339.99H357.48V340.24H389.5V339.99Z" fill="#EBEBEB"/>
<path d="M311.17 334.21H274.19V334.46H311.17V334.21Z" fill="#EBEBEB"/>
<path d="M118.65 341.57H75.46V341.82H118.65V341.57Z" fill="#EBEBEB"/>
<path d="M66.55 341.57H60.22V341.82H66.55V341.57Z" fill="#EBEBEB"/>
<path d="M169.23 334.08H131.75V334.33H169.23V334.08Z" fill="#EBEBEB"/>
<path d="M237 282.8H43.91C42.3974 282.797 40.9476 282.195 39.8789 281.124C38.8102 280.054 38.21 278.603 38.21 277.09V5.66C38.2232 4.15603 38.8292 2.71798 39.8965 1.65822C40.9637 0.598458 42.406 0.00257639 43.91 0H237C238.514 0 239.967 0.601588 241.038 1.67242C242.108 2.74325 242.71 4.19561 242.71 5.71V277.09C242.71 278.604 242.108 280.057 241.038 281.128C239.967 282.198 238.514 282.8 237 282.8ZM43.91 0.200001C42.4637 0.20265 41.0775 0.779065 40.0557 1.80273C39.0339 2.82639 38.46 4.21365 38.46 5.66V277.09C38.46 278.536 39.0339 279.924 40.0557 280.947C41.0775 281.971 42.4637 282.547 43.91 282.55H237C238.447 282.547 239.835 281.971 240.858 280.948C241.881 279.924 242.457 278.537 242.46 277.09V5.66C242.457 4.21273 241.881 2.82549 240.858 1.80212C239.835 0.77874 238.447 0.202644 237 0.200001H43.91Z" fill="#EBEBEB"/>
<path d="M453.31 282.8H260.21C258.696 282.797 257.246 282.195 256.175 281.125C255.105 280.054 254.503 278.604 254.5 277.09V5.66C254.516 4.15511 255.124 2.71708 256.193 1.65759C257.262 0.598109 258.705 0.00254829 260.21 0H453.31C454.812 0.0052045 456.252 0.602249 457.317 1.66173C458.382 2.72121 458.987 4.15775 459 5.66V277.09C459 278.601 458.401 280.05 457.335 281.121C456.268 282.191 454.821 282.795 453.31 282.8ZM260.21 0.200001C258.763 0.202644 257.375 0.77874 256.352 1.80212C255.329 2.82549 254.753 4.21273 254.75 5.66V277.09C254.753 278.537 255.329 279.924 256.352 280.948C257.375 281.971 258.763 282.547 260.21 282.55H453.31C454.757 282.547 456.145 281.971 457.168 280.948C458.191 279.924 458.767 278.537 458.77 277.09V5.66C458.767 4.21273 458.191 2.82549 457.168 1.80212C456.145 0.77874 454.757 0.202644 453.31 0.200001H260.21Z" fill="#EBEBEB"/>
<path d="M63.24 121.83L133.86 121.83V25.74L63.24 25.74L63.24 121.83Z" fill="#E6E6E6"/>
<path d="M60.22 121.83L130.84 121.83V25.74L60.22 25.74L60.22 121.83Z" fill="#F5F5F5"/>
<path d="M125.43 116.83V30.74L65.6401 30.74V116.83H125.43Z" fill="white"/>
<path d="M67.91 116.83V30.74H65.63V116.83H67.91Z" fill="#E6E6E6"/>
<path d="M62.46 93.55L128.6 93.55V86.84L62.46 86.84V93.55Z" fill="#F5F5F5"/>
<path d="M165.21 121.83L235.83 121.83V25.74L165.21 25.74V121.83Z" fill="#E6E6E6"/>
<path d="M162.2 121.83L232.82 121.83V25.74L162.2 25.74V121.83Z" fill="#F5F5F5"/>
<path d="M227.41 116.84V30.75L167.62 30.75V116.84H227.41Z" fill="white"/>
<path d="M169.89 116.83V30.74H167.61V116.83H169.89Z" fill="#E6E6E6"/>
<path d="M164.44 93.55L230.58 93.55V86.84L164.44 86.84V93.55Z" fill="#F5F5F5"/>
<path d="M267.18 121.83L337.8 121.83V25.74L267.18 25.74V121.83Z" fill="#E6E6E6"/>
<path d="M264.17 121.83L334.79 121.83V25.74L264.17 25.74V121.83Z" fill="#F5F5F5"/>
<path d="M329.38 116.83V30.74L269.59 30.74V116.83H329.38Z" fill="white"/>
<path d="M271.86 116.84V30.75H269.58V116.84H271.86Z" fill="#E6E6E6"/>
<path d="M266.41 93.55L332.55 93.55V86.84L266.41 86.84V93.55Z" fill="#F5F5F5"/>
<path d="M369.16 121.83L439.78 121.83V25.74L369.16 25.74V121.83Z" fill="#E6E6E6"/>
<path d="M366.14 121.83L436.76 121.83V25.74L366.14 25.74V121.83Z" fill="#F5F5F5"/>
<path d="M431.36 116.84V30.75L371.57 30.75V116.84H431.36Z" fill="white"/>
<path d="M373.84 116.83V30.74H371.56V116.83H373.84Z" fill="#E6E6E6"/>
<path d="M368.38 93.55L434.52 93.55V86.84L368.38 86.84V93.55Z" fill="#F5F5F5"/>
<path d="M377.89 224.67H331.22V327.4H377.89V224.67Z" fill="#E0E0E0"/>
<path d="M232.43 210.51L219.75 327.4H368.5L381.18 210.51H232.43Z" fill="#E6E6E6"/>
<path d="M230.05 210.51L217.37 327.4H366.12L378.8 210.51H230.05Z" fill="#F0F0F0"/>
<path d="M228.22 317.61H357.39L367.95 220.3H238.78L228.22 317.61Z" fill="white"/>
<path d="M263.86 269.62L279.78 287.48C287.78 296.48 302.41 296.48 312.37 287.48L332.16 269.62C332.345 269.456 332.463 269.229 332.49 268.984C332.518 268.738 332.454 268.491 332.31 268.29L316.39 250.43C308.39 241.43 293.76 241.43 283.8 250.43L264 268.29C263.817 268.455 263.701 268.683 263.675 268.928C263.649 269.174 263.715 269.42 263.86 269.62ZM330.24 268.95L311.18 286.15C302.03 294.4 288.61 294.4 281.25 286.15L265.92 269L285 251.76C294.15 243.51 307.58 243.51 314.93 251.76L330.24 268.95Z" fill="#F0F0F0"/>
<path d="M146.82 327.4H171.46L171.46 193.95H146.82L146.82 327.4Z" fill="#E6E6E6"/>
<path d="M146.82 193.95H67.34V327.4H146.82V193.95Z" fill="#F5F5F5"/>
<path d="M141.22 327.4V199.55H72.93L72.93 327.4H141.22Z" fill="#E6E6E6"/>
<path d="M141.22 327.4V199.55H117.07V327.4H141.22Z" fill="#E0E0E0"/>
<path d="M100.44 249.28C101.377 249.282 102.293 249.007 103.074 248.49C103.856 247.974 104.467 247.238 104.832 246.375C105.198 245.513 105.3 244.562 105.127 243.641C104.954 242.72 104.513 241.871 103.86 241.2C101.68 238.98 98.17 237.2 92.54 237.2C86.91 237.2 83.41 239 81.22 241.2C80.566 241.872 80.1251 242.722 79.9524 243.643C79.7797 244.565 79.8831 245.517 80.2494 246.38C80.6158 247.243 81.2289 247.979 82.0117 248.495C82.7946 249.01 83.7124 249.284 84.65 249.28H100.44Z" fill="#F5F5F5"/>
<path d="M115 247.51C115.601 247.511 116.19 247.334 116.691 247.002C117.193 246.67 117.586 246.198 117.82 245.644C118.055 245.091 118.121 244.48 118.011 243.889C117.901 243.297 117.619 242.752 117.2 242.32C115.79 240.9 113.54 239.74 109.93 239.74C106.32 239.74 104.06 240.9 102.66 242.32C102.241 242.752 101.959 243.297 101.849 243.889C101.739 244.48 101.805 245.091 102.04 245.644C102.274 246.198 102.667 246.67 103.169 247.002C103.67 247.334 104.259 247.511 104.86 247.51H115Z" fill="#F5F5F5"/>
<path d="M129.94 249.13C130.792 249.131 131.626 248.881 132.336 248.411C133.047 247.941 133.603 247.272 133.935 246.487C134.267 245.703 134.36 244.838 134.203 244C134.045 243.163 133.644 242.391 133.05 241.78C131.05 239.78 127.87 238.11 122.75 238.11C117.63 238.11 114.43 239.76 112.45 241.78C111.856 242.391 111.455 243.163 111.298 244C111.14 244.838 111.233 245.703 111.565 246.487C111.897 247.272 112.453 247.941 113.164 248.411C113.875 248.881 114.708 249.131 115.56 249.13H129.94Z" fill="#F5F5F5"/>
<path d="M132.35 245.2C132.947 245.202 133.533 245.366 134.043 245.676C134.554 245.985 134.971 246.427 135.25 246.956C135.528 247.484 135.658 248.078 135.624 248.674C135.591 249.27 135.396 249.846 135.06 250.34C132.06 254.84 124.45 260.68 105.64 260.68C86.83 260.68 79.25 254.84 76.21 250.34C75.8738 249.845 75.6787 249.269 75.6456 248.672C75.6126 248.074 75.743 247.48 76.0227 246.951C76.3024 246.423 76.7209 245.98 77.2331 245.672C77.7454 245.363 78.332 245.2 78.93 245.2H132.35Z" fill="#F0F0F0"/>
<path d="M141.22 266.27V260.67H69.9V266.27H141.22Z" fill="#F5F5F5"/>
<path d="M132.29 193.95H150.16L144.86 147.99H132.29V193.95Z" fill="#E6E6E6"/>
<path d="M102.12 193.95H141.87L146.06 140.15H106.31L102.12 193.95Z" fill="#E0E0E0"/>
<path d="M99.26 193.95H140.62L144.82 140.15H103.46L99.26 193.95Z" fill="#F5F5F5"/>
<path d="M136.71 189.71L140.25 144.39H107.37L103.83 189.71H136.71Z" fill="white"/>
<path d="M153.37 165.41L158.04 165.2L155.93 174.06C154.264 172.918 152.746 171.574 151.41 170.06C151.024 169.606 150.833 169.019 150.878 168.426C150.923 167.832 151.201 167.28 151.65 166.89L153.37 165.41Z" fill="#FFB573"/>
<path d="M163.45 169.98L161.36 177.21L155.93 174.06L158.04 165.2L163.45 169.98Z" fill="#FFB573"/>
<path d="M197.83 114.23C199.72 118.42 201.7 122.72 203.7 126.91C205.7 131.1 207.7 135.31 209.92 139.32C210.45 140.32 211.02 141.32 211.57 142.32L211.68 142.51C211.68 142.51 211.68 142.51 211.59 142.44C211.3 142.162 210.961 141.942 210.59 141.79C210.404 141.706 210.21 141.642 210.01 141.6C209.784 141.545 209.553 141.515 209.32 141.51C208.889 141.49 208.458 141.551 208.05 141.69C207.671 141.797 207.327 142 207.05 142.28C206.91 142.47 207.14 142.28 207.34 142.02C207.589 141.678 207.816 141.321 208.02 140.95C208.49 140.12 209.02 139.15 209.41 138.15C211.17 134.15 212.75 129.6 214.32 125.22L219.67 126.22C219.439 131.183 218.715 136.11 217.51 140.93C217.183 142.234 216.776 143.516 216.29 144.77C215.995 145.485 215.661 146.182 215.29 146.86C214.794 147.798 214.156 148.655 213.4 149.4C212.685 150.085 211.828 150.604 210.89 150.92C210.196 151.145 209.468 151.243 208.74 151.21C208.359 151.191 207.981 151.138 207.61 151.05C207.268 150.967 206.934 150.857 206.61 150.72C205.693 150.316 204.872 149.723 204.2 148.98C203.973 148.732 203.759 148.471 203.56 148.2L203.31 147.85L203.18 147.66C202.48 146.66 201.77 145.59 201.11 144.54C198.45 140.36 196.11 136.1 193.86 131.79C191.61 127.48 189.61 123.12 187.71 118.58L197.83 114.23Z" fill="#FFB573"/>
<path d="M213.46 123.69L214.55 120.17L221.55 123.17C221.55 123.17 220.08 127.02 217.55 128.59C217.047 128.908 216.439 129.015 215.858 128.885C215.277 128.756 214.77 128.402 214.45 127.9C213.654 126.649 213.305 125.165 213.46 123.69Z" fill="#FFB573"/>
<path d="M216 114.73L217.12 115.05C218.457 115.437 219.627 116.258 220.444 117.385C221.261 118.512 221.678 119.879 221.63 121.27L221.56 123.14L214.56 120.14L216 114.73Z" fill="#FFB573"/>
<path d="M217.79 125.47L211.62 124.86C211.535 124.852 211.454 124.826 211.379 124.784C211.305 124.743 211.24 124.687 211.189 124.619C211.137 124.552 211.1 124.474 211.08 124.392C211.059 124.31 211.056 124.224 211.07 124.14L213.07 110.87C213.1 110.694 213.194 110.536 213.335 110.427C213.476 110.317 213.652 110.265 213.83 110.28L219.99 110.89C220.076 110.896 220.16 110.919 220.236 110.96C220.312 111 220.379 111.056 220.432 111.124C220.485 111.192 220.523 111.271 220.543 111.354C220.563 111.438 220.566 111.525 220.55 111.61L218.55 124.88C218.518 125.055 218.423 125.212 218.283 125.321C218.143 125.429 217.967 125.483 217.79 125.47Z" fill="#263238"/>
<path d="M217.47 125.44L211.31 124.83C211.225 124.821 211.143 124.796 211.068 124.754C210.994 124.713 210.928 124.657 210.876 124.59C210.823 124.523 210.785 124.445 210.764 124.363C210.742 124.28 210.737 124.194 210.75 124.11L212.75 110.84C212.777 110.663 212.871 110.503 213.013 110.394C213.154 110.284 213.332 110.232 213.51 110.25L219.67 110.86C219.755 110.868 219.837 110.894 219.912 110.935C219.986 110.977 220.052 111.033 220.104 111.1C220.157 111.167 220.195 111.245 220.216 111.327C220.238 111.41 220.243 111.496 220.23 111.58L218.23 124.85C218.2 125.026 218.106 125.184 217.965 125.293C217.824 125.403 217.648 125.455 217.47 125.44Z" fill="#3FA4DD"/>
<path opacity="0.4" d="M218.36 124L210.88 123.27L212.59 112.04L220.07 112.78L218.36 124Z" fill="white"/>
<path opacity="0.4" d="M212.35 123.41L211.43 123.32L215.69 112.35L216.61 112.44L212.35 123.41Z" fill="white"/>
<path opacity="0.4" d="M214.34 123.61L212.9 123.47L217.16 112.5L218.61 112.64L214.34 123.61Z" fill="white"/>
<path opacity="0.4" d="M216.9 111.48C216.878 111.589 216.818 111.687 216.73 111.755C216.641 111.823 216.531 111.857 216.42 111.85C216.367 111.844 216.316 111.827 216.27 111.801C216.224 111.775 216.183 111.74 216.151 111.698C216.118 111.656 216.094 111.608 216.08 111.557C216.067 111.506 216.063 111.453 216.07 111.4C216.089 111.289 216.149 111.189 216.238 111.119C216.326 111.048 216.437 111.013 216.55 111.02C216.657 111.035 216.754 111.092 216.82 111.178C216.885 111.264 216.914 111.373 216.9 111.48Z" fill="#263238"/>
<path d="M219.51 121.18L218.42 121.55L217.42 120.63C216.912 120.149 216.34 119.742 215.72 119.42L215.2 119.15L214.92 119.5C214.761 119.69 214.669 119.927 214.658 120.175C214.648 120.422 214.718 120.667 214.86 120.87L215.45 121.72L217.45 126.27L219.45 125.72L221.08 123.61L219.51 121.18Z" fill="#FFB573"/>
<path d="M157.69 117.79C156.54 119.79 155.27 121.92 154.14 124.04C153.01 126.16 151.86 128.32 150.82 130.48C149.78 132.64 148.82 134.82 147.91 137C147.04 139.125 146.305 141.302 145.71 143.52L145.35 144.89C145.291 145.159 145.268 145.435 145.28 145.71C145.315 146.56 145.466 147.401 145.73 148.21C146.424 150.287 147.343 152.282 148.47 154.16C149.62 156.16 150.96 158.16 152.36 160.16C153.76 162.16 155.27 164.16 156.74 166.02L153 170C148.737 166.779 144.89 163.04 141.55 158.87C139.737 156.628 138.215 154.165 137.02 151.54C136.331 150.002 135.853 148.377 135.6 146.71C135.462 145.716 135.439 144.709 135.53 143.71L135.62 142.93L135.71 142.41L135.9 141.36C136.12 139.93 136.48 138.61 136.8 137.25C137.12 135.89 137.55 134.61 138 133.34C138.84 130.76 139.85 128.34 140.91 125.85C141.97 123.36 143.14 121.06 144.39 118.74C145.01 117.58 145.65 116.43 146.31 115.29C146.97 114.12 147.63 113.05 148.42 111.84L157.69 117.79Z" fill="#FFB573"/>
<path d="M186.65 86.54C186.46 87.09 186.59 87.65 186.95 87.79C187.31 87.93 187.75 87.59 187.95 87.04C188.15 86.49 188.01 85.93 187.65 85.79C187.29 85.65 186.84 86 186.65 86.54Z" fill="#263238"/>
<path d="M186.54 87.63C186.616 89.5793 186.953 91.5097 187.54 93.37C187.069 93.4932 186.576 93.5105 186.097 93.4206C185.618 93.3307 185.165 93.1358 184.77 92.85L186.54 87.63Z" fill="#ED893E"/>
<path d="M188.58 83.28C188.512 83.2688 188.45 83.2375 188.4 83.19C188.061 82.9283 187.666 82.7503 187.245 82.6703C186.825 82.5904 186.391 82.6108 185.98 82.73C185.937 82.7421 185.891 82.7455 185.847 82.7399C185.802 82.7344 185.759 82.72 185.72 82.6977C185.681 82.6754 185.647 82.6455 185.619 82.6099C185.592 82.5742 185.572 82.5335 185.56 82.49C185.548 82.4466 185.545 82.4013 185.55 82.3567C185.556 82.312 185.57 82.2689 185.592 82.2298C185.615 82.1908 185.644 82.1565 185.68 82.1291C185.716 82.1016 185.757 82.0816 185.8 82.07C186.322 81.92 186.872 81.8971 187.404 82.0032C187.936 82.1094 188.436 82.3414 188.86 82.68C188.924 82.7454 188.96 82.8334 188.96 82.925C188.96 83.0166 188.924 83.1045 188.86 83.17C188.823 83.2064 188.78 83.235 188.731 83.2539C188.683 83.2728 188.632 83.2817 188.58 83.28Z" fill="#263238"/>
<path d="M165.86 88.2C166.05 94.2 168.26 101.37 164.69 104.91C164.69 104.91 166.35 110.28 176.19 110.28C187.02 110.28 181.19 104.91 181.19 104.91C175.19 103.5 175.19 99.11 176.08 94.99L165.86 88.2Z" fill="#FFB573"/>
<path d="M162.15 106.75C161.31 105.05 160.44 102.43 162.15 101.82C164.06 101.15 173.83 99.4499 181.25 101.82C180.861 102.646 180.65 103.546 180.633 104.459C180.616 105.373 180.792 106.279 181.15 107.12L162.15 106.75Z" fill="#3FA4DD"/>
<path d="M154.57 354.21C153.935 354.209 153.301 354.142 152.68 354.01C152.647 354.002 152.617 353.985 152.594 353.96C152.57 353.935 152.555 353.904 152.55 353.87C152.541 353.838 152.543 353.804 152.556 353.773C152.569 353.742 152.591 353.716 152.62 353.7C152.7 353.64 154.62 352.29 155.7 352.51C155.816 352.533 155.926 352.581 156.023 352.65C156.119 352.719 156.2 352.807 156.26 352.91C156.346 353.029 156.393 353.173 156.393 353.32C156.393 353.467 156.346 353.611 156.26 353.73C156.024 353.918 155.754 354.058 155.463 354.14C155.173 354.222 154.87 354.246 154.57 354.21ZM153.15 353.75C154.24 353.94 155.72 353.93 156.02 353.53C156.02 353.53 156.14 353.37 155.97 353.09C155.933 353.026 155.883 352.972 155.822 352.93C155.762 352.889 155.693 352.861 155.62 352.85C154.727 352.903 153.868 353.216 153.15 353.75Z" fill="#3FA4DD"/>
<path d="M152.72 354H152.63C152.602 353.984 152.579 353.96 152.563 353.932C152.547 353.904 152.539 353.872 152.54 353.84C152.54 353.75 152.64 351.67 153.45 350.97C153.55 350.884 153.666 350.821 153.792 350.783C153.917 350.745 154.05 350.734 154.18 350.75C154.313 350.748 154.442 350.793 154.544 350.877C154.647 350.961 154.716 351.079 154.74 351.21C154.9 352.02 153.52 353.6 152.8 354H152.72ZM154.06 351.06C153.917 351.061 153.78 351.119 153.68 351.22C153.197 351.88 152.929 352.672 152.91 353.49C153.62 352.93 154.5 351.74 154.41 351.26C154.41 351.26 154.41 351.1 154.14 351.07L154.06 351.06Z" fill="#3FA4DD"/>
<path d="M192.66 354.21C191.912 354.207 191.166 354.14 190.43 354.01C190.397 354.002 190.367 353.985 190.344 353.96C190.32 353.935 190.305 353.904 190.3 353.87C190.294 353.835 190.299 353.8 190.313 353.768C190.327 353.736 190.351 353.709 190.38 353.69C190.74 353.48 193.96 351.64 194.74 352.91C194.82 353.021 194.863 353.154 194.863 353.29C194.863 353.426 194.82 353.559 194.74 353.67C194.48 354.08 193.59 354.21 192.66 354.21ZM190.98 353.75C192.34 353.94 194.18 353.92 194.49 353.47C194.49 353.47 194.59 353.33 194.44 353.09C194 352.37 192.05 353.19 191 353.75H190.98Z" fill="#3FA4DD"/>
<path d="M190.47 354C190.437 354.01 190.403 354.01 190.37 354C190.345 353.985 190.325 353.962 190.312 353.935C190.3 353.909 190.296 353.879 190.3 353.85C190.3 353.77 190.42 351.85 191.3 351.06C191.428 350.945 191.578 350.858 191.742 350.807C191.906 350.755 192.079 350.739 192.25 350.76C192.73 350.81 192.87 351.05 192.9 351.25C193.04 352.09 191.4 353.62 190.53 354.02L190.47 354ZM192.12 351.06C191.902 351.062 191.692 351.144 191.53 351.29C191.016 351.928 190.715 352.712 190.67 353.53C191.54 353 192.67 351.78 192.58 351.28C192.58 351.23 192.58 351.1 192.22 351.07L192.12 351.06Z" fill="#3FA4DD"/>
<path d="M182.5 353.84H189.75L189.82 337.06H182.57L182.5 353.84Z" fill="#FFB573"/>
<path d="M144.41 353.84H151.66L154.65 337.06H147.41L144.41 353.84Z" fill="#FFB573"/>
<path d="M152.14 353H144C143.858 353.002 143.721 353.053 143.611 353.144C143.502 353.235 143.428 353.36 143.4 353.5L142.22 359.94C142.195 360.099 142.206 360.262 142.25 360.417C142.295 360.572 142.373 360.715 142.478 360.837C142.584 360.959 142.715 361.056 142.862 361.123C143.009 361.189 143.169 361.222 143.33 361.22C146.17 361.22 147.55 361.01 151.13 361.01C153.33 361.01 157.87 361.24 160.92 361.24C163.97 361.24 164.24 358.24 162.98 357.96C157.35 356.74 155.18 355.05 153.34 353.45C153.007 353.161 152.581 353.001 152.14 353Z" fill="#263238"/>
<path d="M189.67 353H181.75C181.608 353 181.472 353.051 181.364 353.142C181.256 353.234 181.184 353.36 181.16 353.5L180 359.94C179.972 360.098 179.979 360.261 180.021 360.416C180.063 360.571 180.139 360.715 180.243 360.837C180.348 360.959 180.477 361.057 180.624 361.123C180.77 361.189 180.929 361.222 181.09 361.22C183.95 361.22 188.09 361.01 191.65 361.01C195.85 361.01 199.48 361.24 204.4 361.24C207.4 361.24 208.08 358.24 206.83 357.96C201.11 356.72 196.48 356.59 191.46 353.57C190.928 353.217 190.308 353.02 189.67 353Z" fill="#263238"/>
<path d="M150.86 106.54C144.13 108.1 137.06 126.62 137.06 126.62L151.06 135.96C154.271 131.09 157.087 125.97 159.48 120.65C163.17 112.17 157.75 105 150.86 106.54Z" fill="#3FA4DD"/>
<path opacity="0.3" d="M150.86 106.54C144.13 108.1 137.06 126.62 137.06 126.62L151.06 135.96C154.271 131.09 157.087 125.97 159.48 120.65C163.17 112.17 157.75 105 150.86 106.54Z" fill="black"/>
<path opacity="0.2" d="M156.19 118.35L150.4 135.52L151.06 135.96C151.06 135.96 153.7 132.05 156.51 126.76L156.19 118.35Z" fill="black"/>
<path d="M196.06 138.91C196.01 147 195.52 157.06 194.32 169.54H155.56C155.06 163.6 157.68 134.54 150.87 106.54C155.13 105.714 159.439 105.166 163.77 104.9C169.256 104.59 174.754 104.59 180.24 104.9C184.028 105.282 187.782 105.951 191.47 106.9C191.47 106.9 194.78 110.5 195.79 127.33C196 130.66 196.09 134.49 196.06 138.91Z" fill="#3FA4DD"/>
<path opacity="0.3" d="M196.06 138.91C196.01 147 195.52 157.06 194.32 169.54H155.56C155.06 163.6 157.68 134.54 150.87 106.54C155.13 105.714 159.439 105.166 163.77 104.9C169.256 104.59 174.754 104.59 180.24 104.9C184.028 105.282 187.782 105.951 191.47 106.9C191.47 106.9 194.78 110.5 195.79 127.33C196 130.66 196.09 134.49 196.06 138.91Z" fill="black"/>
<path opacity="0.2" d="M196.06 138.91C190.22 142.36 185.7 130.54 188.83 122.08L195.83 127.34C196 130.66 196.09 134.49 196.06 138.91Z" fill="black"/>
<path d="M184 112.28C182.2 118.94 194.72 138.04 194.72 138.04L208.85 130.16C206.581 124.125 203.597 118.384 199.96 113.06C193.94 104.8 186 104.77 184 112.28Z" fill="#3FA4DD"/>
<path opacity="0.3" d="M184 112.28C182.2 118.94 194.72 138.04 194.72 138.04L208.85 130.16C206.581 124.125 203.597 118.384 199.96 113.06C193.94 104.8 186 104.77 184 112.28Z" fill="black"/>
<path opacity="0.2" d="M189.82 337.07L189.78 345.71H182.53L182.57 337.07H189.82Z" fill="black"/>
<path opacity="0.2" d="M147.41 337.07H154.65L153.11 345.71H145.86L147.41 337.07Z" fill="black"/>
<path d="M168.9 78.2799C166.96 85.2199 165.47 89.1799 167.64 93.9799C168.32 95.5483 169.418 96.9 170.813 97.8883C172.208 98.8765 173.847 99.4633 175.552 99.585C177.257 99.7066 178.963 99.3584 180.485 98.5783C182.006 97.7981 183.284 96.6158 184.18 95.1599C187.73 89.6299 190.31 79.1599 184.7 73.9399C183.52 72.7701 182.052 71.9322 180.445 71.5107C178.837 71.0892 177.147 71.099 175.545 71.5392C173.942 71.9793 172.484 72.8343 171.318 74.0177C170.151 75.2012 169.317 76.6714 168.9 78.2799Z" fill="#FFB573"/>
<path d="M167.68 70.1499C164.29 69.2799 161.23 71.4899 161.51 79.8799C161.79 88.2699 164.15 90.8799 165.31 93.0999C166.47 95.3199 166.59 93.3599 171.18 94.8199C174.33 95.8199 177.58 85.6099 181.72 85.5499C186.32 85.4799 182.39 77.7599 182.39 77.7599C183.39 79.4099 193.28 80.5299 187.5 73.1099C182.38 66.5399 164.21 65.3299 167.68 70.1499Z" fill="#263238"/>
<path d="M161 79.5599C161 79.5599 183.77 77.2199 188.61 74.1799C188.39 68.0499 185.15 64.41 183.96 63.55C182.77 62.69 172.57 62.3499 170.19 63.0199C167.81 63.6899 161.29 67.13 160.53 68.55C159.77 69.97 161 79.5599 161 79.5599Z" fill="#3FA4DD"/>
<path d="M183.75 75.9399C181.26 77.7999 171.15 85.9399 158.11 84.2399C145.07 82.5399 161.49 79.0199 161.49 79.0199L183.75 75.9399Z" fill="#3FA4DD"/>
<path opacity="0.4" d="M183.75 75.9399C181.26 77.7999 171.15 85.9399 158.11 84.2399C145.07 82.5399 161.49 79.0199 161.49 79.0199L183.75 75.9399Z" fill="white"/>
<path d="M177.24 83.77C177.041 85.5764 177.427 87.3988 178.34 88.97C179.56 91.03 181.34 90.31 182.01 88.27C182.6 86.44 182.68 83.16 181.01 81.79C179.34 80.42 177.5 81.62 177.24 83.77Z" fill="#FFB573"/>
<path d="M180.57 169.54C180.57 169.54 174.48 224.91 170.77 245.66C166.71 268.37 156.42 344 156.42 344H143.15C143.15 344 147.15 270.17 149.15 247.68C151.27 223.27 155.6 169.5 155.6 169.5L180.57 169.54Z" fill="#3FA4DD"/>
<path d="M158.35 339.15C158.41 339.15 157.18 344.25 157.18 344.25H142.25L142.34 339.7L158.35 339.15Z" fill="#263238"/>
<path opacity="0.2" d="M176.13 189.27C166.7 191.13 169.07 226.59 170.92 244.83C173.17 231.94 176.22 207.13 178.28 189.53C177.614 189.199 176.855 189.107 176.13 189.27Z" fill="black"/>
<path d="M194.32 169.54C194.32 169.54 197.41 223.71 197.47 245.81C197.54 268.81 192.42 344.04 192.42 344.04H180.14C180.14 344.04 176.84 270.13 175.42 247.56C173.88 222.96 168.84 169.56 168.84 169.56L194.32 169.54Z" fill="#3FA4DD"/>
<path d="M194.59 339.15C194.65 339.15 194.09 344.25 194.09 344.25H179.16L178.58 339.7L194.59 339.15Z" fill="#263238"/>
<path d="M229.37 111.16L255.16 122.08V111.16H229.37Z" fill="#3FA4DD"/>
<path d="M383.78 64.62H272.26C264.782 64.62 258.72 70.6821 258.72 78.16V246.74C258.72 254.218 264.782 260.28 272.26 260.28H383.78C391.258 260.28 397.32 254.218 397.32 246.74V78.16C397.32 70.6821 391.258 64.62 383.78 64.62Z" fill="#263238"/>
<path d="M380.22 64.62H268.7C261.222 64.62 255.16 70.6821 255.16 78.16V246.74C255.16 254.218 261.222 260.28 268.7 260.28H380.22C387.698 260.28 393.76 254.218 393.76 246.74V78.16C393.76 70.6821 387.698 64.62 380.22 64.62Z" fill="#3FA4DD"/>
<path opacity="0.8" d="M393.76 122.08H255.16V237.57H393.76V122.08Z" fill="#FAFAFA"/>
<path d="M275.32 88.72C274.153 88.72 273.012 88.374 272.042 87.7257C271.072 87.0774 270.316 86.156 269.869 85.0779C269.422 83.9998 269.306 82.8135 269.533 81.669C269.761 80.5245 270.323 79.4732 271.148 78.6481C271.973 77.823 273.024 77.2611 274.169 77.0334C275.313 76.8058 276.5 76.9226 277.578 77.3692C278.656 77.8157 279.577 78.5719 280.226 79.5422C280.874 80.5124 281.22 81.6531 281.22 82.8201C281.22 84.3848 280.598 85.8855 279.492 86.992C278.385 88.0984 276.885 88.72 275.32 88.72ZM275.32 77.97C274.358 77.9681 273.417 78.2517 272.616 78.7849C271.815 79.3182 271.191 80.0771 270.822 80.9656C270.453 81.854 270.356 82.832 270.543 83.7757C270.73 84.7194 271.193 85.5863 271.873 86.2666C272.554 86.9469 273.421 87.4099 274.364 87.5971C275.308 87.7843 276.286 87.6873 277.174 87.3182C278.063 86.9491 278.822 86.3246 279.355 85.5239C279.888 84.7231 280.172 83.7821 280.17 82.8201C280.162 81.539 279.648 80.313 278.739 79.41C277.83 78.5069 276.601 78 275.32 78V77.97Z" fill="#FAFAFA"/>
<path d="M292.54 88.72C291.373 88.722 290.231 88.3777 289.259 87.7306C288.288 87.0835 287.53 86.1627 287.082 85.0848C286.634 84.0069 286.516 82.8203 286.742 81.6752C286.969 80.53 287.53 79.4778 288.355 78.6517C289.179 77.8255 290.231 77.2626 291.375 77.0341C292.52 76.8057 293.707 76.9219 294.786 77.3682C295.864 77.8145 296.786 78.5707 297.435 79.5411C298.084 80.5116 298.43 81.6527 298.43 82.82C298.43 84.3831 297.81 85.8823 296.705 86.9884C295.601 88.0946 294.103 88.7174 292.54 88.72ZM292.54 77.97C291.578 77.9681 290.637 78.2517 289.836 78.7849C289.035 79.3182 288.411 80.0771 288.042 80.9656C287.673 81.854 287.576 82.832 287.763 83.7757C287.95 84.7194 288.413 85.5863 289.093 86.2666C289.774 86.9469 290.641 87.4099 291.584 87.5971C292.528 87.7843 293.506 87.6873 294.394 87.3182C295.283 86.9491 296.042 86.3246 296.575 85.5239C297.108 84.7231 297.392 83.7821 297.39 82.82C297.379 81.5398 296.864 80.3154 295.956 79.4129C295.048 78.5103 293.82 78.0026 292.54 78V77.97Z" fill="#FAFAFA"/>
<path d="M309.75 88.72C308.583 88.72 307.442 88.374 306.472 87.7257C305.502 87.0774 304.746 86.156 304.299 85.0779C303.853 83.9998 303.736 82.8135 303.963 81.669C304.191 80.5245 304.753 79.4732 305.578 78.6481C306.403 77.823 307.454 77.2611 308.599 77.0334C309.743 76.8058 310.93 76.9226 312.008 77.3692C313.086 77.8157 314.007 78.5719 314.656 79.5422C315.304 80.5124 315.65 81.6531 315.65 82.8201C315.65 84.3848 315.028 85.8855 313.922 86.992C312.815 88.0984 311.315 88.72 309.75 88.72ZM309.75 77.97C308.788 77.97 307.848 78.2553 307.049 78.7898C306.249 79.3243 305.627 80.0839 305.259 80.9725C304.891 81.8611 304.796 82.8389 304.984 83.7819C305.172 84.7249 305.636 85.5908 306.317 86.2701C306.998 86.9494 307.865 87.4115 308.808 87.5979C309.751 87.7843 310.729 87.6866 311.617 87.3172C312.505 86.9479 313.263 86.3234 313.796 85.5228C314.329 84.7223 314.612 83.7817 314.61 82.8201C314.599 81.538 314.083 80.3121 313.172 79.4093C312.262 78.5065 311.032 78 309.75 78V77.97Z" fill="#FAFAFA"/>
<path d="M318.17 248.67C318.17 249.234 318.003 249.785 317.69 250.253C317.377 250.722 316.931 251.087 316.411 251.303C315.89 251.519 315.317 251.575 314.764 251.465C314.211 251.355 313.703 251.084 313.305 250.685C312.906 250.287 312.635 249.779 312.525 249.226C312.415 248.673 312.471 248.1 312.687 247.579C312.903 247.059 313.268 246.613 313.737 246.3C314.205 245.987 314.756 245.82 315.32 245.82C315.695 245.819 316.066 245.891 316.412 246.034C316.759 246.177 317.073 246.387 317.338 246.652C317.603 246.917 317.813 247.231 317.956 247.578C318.098 247.924 318.171 248.295 318.17 248.67Z" fill="#FAFAFA"/>
<path d="M327.31 248.67C327.31 249.234 327.143 249.785 326.83 250.253C326.517 250.722 326.071 251.087 325.551 251.303C325.03 251.519 324.457 251.575 323.904 251.465C323.351 251.355 322.843 251.084 322.445 250.685C322.046 250.287 321.775 249.779 321.665 249.226C321.555 248.673 321.611 248.1 321.827 247.579C322.043 247.059 322.408 246.613 322.877 246.3C323.345 245.987 323.896 245.82 324.46 245.82C324.835 245.819 325.206 245.891 325.552 246.034C325.899 246.177 326.213 246.387 326.478 246.652C326.743 246.917 326.953 247.231 327.096 247.578C327.238 247.924 327.311 248.295 327.31 248.67Z" fill="#FAFAFA"/>
<path d="M336.45 248.67C336.45 249.234 336.283 249.785 335.97 250.253C335.657 250.722 335.211 251.087 334.691 251.303C334.17 251.519 333.597 251.575 333.044 251.465C332.491 251.355 331.983 251.084 331.585 250.685C331.186 250.287 330.915 249.779 330.805 249.226C330.695 248.673 330.751 248.1 330.967 247.579C331.183 247.059 331.548 246.614 332.017 246.3C332.485 245.987 333.036 245.82 333.6 245.82C334.356 245.82 335.081 246.12 335.615 246.655C336.15 247.189 336.45 247.914 336.45 248.67Z" fill="#FAFAFA"/>
<path d="M298.27 130.64H267.88C265.582 130.64 263.72 132.503 263.72 134.8V165.19C263.72 167.488 265.582 169.35 267.88 169.35H298.27C300.567 169.35 302.43 167.488 302.43 165.19V134.8C302.43 132.503 300.567 130.64 298.27 130.64Z" fill="#3FA4DD"/>
<path opacity="0.3" d="M283.08 152.06C287.299 152.06 290.72 148.639 290.72 144.42C290.72 140.201 287.299 136.78 283.08 136.78C278.86 136.78 275.44 140.201 275.44 144.42C275.44 148.639 278.86 152.06 283.08 152.06Z" fill="white"/>
<path opacity="0.3" d="M283.08 155.27C277.08 155.27 272.01 158.02 270.31 161.81C270.182 162.112 270.13 162.44 270.159 162.766C270.188 163.093 270.297 163.407 270.475 163.682C270.654 163.956 270.898 164.182 271.184 164.341C271.471 164.499 271.792 164.585 272.12 164.59H294C294.328 164.585 294.649 164.499 294.936 164.341C295.222 164.182 295.466 163.956 295.644 163.682C295.823 163.407 295.932 163.093 295.961 162.766C295.99 162.44 295.938 162.112 295.81 161.81C294.14 158 289.07 155.27 283.08 155.27Z" fill="white"/>
<path opacity="0.7" d="M376.76 224.43H272.16C269.922 224.43 267.775 223.541 266.192 221.958C264.609 220.375 263.72 218.228 263.72 215.99C263.72 213.752 264.609 211.605 266.192 210.022C267.775 208.439 269.922 207.55 272.16 207.55H376.76C377.869 207.55 378.967 207.769 379.992 208.193C381.017 208.618 381.948 209.241 382.731 210.026C383.515 210.81 384.137 211.742 384.56 212.767C384.984 213.792 385.201 214.891 385.2 216C385.197 218.237 384.307 220.381 382.724 221.962C381.142 223.542 378.997 224.43 376.76 224.43Z" fill="white"/>
<path opacity="0.2" d="M376.76 199.65H272.16C269.922 199.65 267.775 198.761 266.192 197.178C264.609 195.595 263.72 193.448 263.72 191.21C263.72 188.972 264.609 186.825 266.192 185.242C267.775 183.659 269.922 182.77 272.16 182.77H376.76C378.998 182.77 381.145 183.659 382.728 185.242C384.311 186.825 385.2 188.972 385.2 191.21C385.2 193.448 384.311 195.595 382.728 197.178C381.145 198.761 378.998 199.65 376.76 199.65Z" fill="#3FA4DD"/>
<path d="M312.03 142.95H384.95V137.82H312.03V142.95Z" fill="white"/>
<path d="M312.03 152.56H384.95V147.43H312.03V152.56Z" fill="white"/>
<path d="M312.02 162.17H370.32V157.04H312.02V162.17Z" fill="white"/>
</svg>
