<svg width="458" height="445" viewBox="0 0 458 445" fill="none" xmlns="http://www.w3.org/2000/svg">
<path d="M446.81 32.24C447.81 39.3 442.52 44.24 431.55 45.76L409.49 48.76L403.85 7.91L424.75 5.03C435.49 3.55 441.34 7.2 442.21 13.5C442.497 15.3446 442.249 17.233 441.494 18.9403C440.738 20.6476 439.508 22.1019 437.95 23.13C442.78 24.13 446.13 27.28 446.81 32.24ZM416.44 14.72L417.51 22.6L425.45 21.5C429.3 20.97 431.1 19.35 430.74 16.73C430.38 14.11 428.21 13.09 424.36 13.62L416.44 14.72ZM434.96 32.56C434.58 29.76 432.29 28.71 428.32 29.26L418.63 30.59L419.78 38.88L429.51 37.54C433.43 37 435.35 35.36 434.96 32.56Z" fill="#E0E0E0"/>
<path d="M64.95 267.68H20.56V274.71H64.95V267.68Z" fill="#EBEBEB"/>
<path d="M64.95 293.28H20.56V300.31H64.95V293.28Z" fill="#EBEBEB"/>
<path d="M42.75 280.93H20.56V287.96H42.75V280.93Z" fill="#EBEBEB"/>
<path d="M182.46 327.28H148.39V299.3H166.04V305.2H154.3V321.38H176.56V315.5H182.46V327.28Z" fill="#EBEBEB"/>
<path d="M202.11 327.28H187.59V321.38H196.21V305.2H173.94V312.74H168.04V299.3H202.11V327.28Z" fill="#EBEBEB"/>
<path d="M451.38 90.13H457.27L449.02 131.37H443.13L451.38 90.13Z" fill="#EBEBEB"/>
<path d="M7.51999 41.59H99.42V174.83H8.14999L7.51999 41.59Z" fill="#E0E0E0"/>
<path d="M0.619995 174.2H91.68L91.68 42.2099H0.619995L0.619995 174.2Z" fill="white"/>
<path d="M92.31 41.59V174.83H0V41.59H92.31ZM91.06 173.59V42.84H1.25V173.58L91.06 173.59Z" fill="#E0E0E0"/>
<path d="M80.37 56.51H11.94V159.91H80.37V56.51Z" fill="white"/>
<path d="M11.94 56.51C11.94 56.51 11.94 56.69 11.94 57.02C11.94 57.35 11.94 57.86 11.94 58.49C11.94 59.8 11.94 61.71 11.94 64.17C11.94 69.17 11.99 76.36 12.02 85.48C12.02 103.71 12.11 129.48 12.17 159.91L11.87 159.61H80.29L79.97 159.94C79.97 120.94 79.97 84.94 80.03 56.54L80.29 56.8L30.5 56.67L16.81 56.57H13.2H11.94C11.94 56.57 12.34 56.57 13.14 56.57H16.71L30.42 56.5L80.42 56.36H80.68V56.62C80.68 85.06 80.68 121.02 80.75 160.02V160.35H80.41H11.99H11.69V160.05C11.75 129.58 11.8 103.7 11.84 85.42C11.84 76.33 11.9 69.13 11.92 64.18C11.92 61.74 11.92 59.86 11.92 58.56C11.92 57.95 11.92 57.47 11.92 57.13C11.92 56.79 11.94 56.51 11.94 56.51Z" fill="#E0E0E0"/>
<path d="M0.369995 174.2C0.772893 173.39 1.26602 172.629 1.83999 171.93C2.83999 170.58 4.19999 168.75 5.83999 166.76C7.47999 164.77 8.92999 163.03 10.06 161.76C10.6177 161.048 11.2666 160.413 11.99 159.87C12.13 159.99 9.50999 163.17 6.34999 167.13C3.18999 171.09 0.509995 174.32 0.369995 174.2Z" fill="#E0E0E0"/>
<path d="M0.630012 42.22C0.770012 42.11 3.42001 45.22 6.54001 49.16C9.66001 53.1 12.08 56.4 11.94 56.51C11.8 56.62 9.15001 53.51 6.03001 49.57C2.91001 45.63 0.510012 42.33 0.630012 42.22Z" fill="#E0E0E0"/>
<path d="M91.7 42.3199L79.77 57.0399Z" fill="white"/>
<path d="M79.77 57.04C79.63 56.93 82.19 53.54 85.48 49.48C88.77 45.42 91.56 42.21 91.7 42.32C91.84 42.43 89.28 45.82 85.99 49.89C82.7 53.96 79.91 57.13 79.77 57.04Z" fill="#E0E0E0"/>
<path d="M91.69 174.2C91.54 174.32 88.92 171.2 85.84 167.33C82.76 163.46 80.35 160.13 80.51 160.06C80.67 159.99 83.27 163.06 86.36 166.93C89.45 170.8 91.83 174.13 91.69 174.2Z" fill="#E0E0E0"/>
<path d="M50.57 109.72H38.51L37.07 113.04C36.661 113.899 36.4233 114.83 36.37 115.78C36.3429 116.203 36.4354 116.626 36.637 116.999C36.8386 117.372 37.1412 117.681 37.51 117.89C38.5786 118.288 39.7098 118.491 40.85 118.49V119.42H29.51V118.49C30.6538 118.339 31.7121 117.803 32.51 116.97C33.7615 115.416 34.7728 113.684 35.51 111.83L47.71 84.63H48.19L60.48 112.63C61.1545 114.448 62.1316 116.138 63.37 117.63C64.0488 118.193 64.8982 118.51 65.78 118.53V119.46H49.26V118.53H49.94C50.9031 118.611 51.8697 118.421 52.73 117.98C52.9114 117.848 53.0569 117.673 53.153 117.47C53.2491 117.267 53.2927 117.044 53.28 116.82C53.2775 116.504 53.2269 116.191 53.13 115.89C53.13 115.74 52.85 115.11 52.38 114.01L50.57 109.72ZM49.71 107.86L44.64 96.13L39.41 107.86H49.71Z" fill="#E0E0E0"/>
<path d="M197.92 431.51C196.3 430.12 192.68 425.71 195.47 420.58C196.47 418.7 198.67 417.77 200.63 416.94C202.659 416.256 204.572 415.264 206.3 414C209.37 411.39 210.22 407.05 212.3 403.56C214.64 399.56 219 396.56 223.62 396.78C228.9 397.02 233.31 401.33 235.31 406.25C237.31 411.17 237.37 416.64 237.42 421.95C237.42 424.89 237.31 428.2 235.15 430.19C233.15 432.02 230.15 432.04 227.47 431.96L198.51 431.07" fill="#F5F5F5"/>
<path d="M253.15 352.13H177.21L190.89 433.7C191.174 435.398 191.934 436.982 193.081 438.267C194.227 439.551 195.715 440.485 197.37 440.96L197.64 441.04C197.87 441.09 198.08 441.17 198.32 441.21C198.828 441.311 199.343 441.371 199.86 441.39V441.47L200.23 441.41H234.08C234.705 441.408 235.328 441.345 235.94 441.22C237.921 440.913 239.747 439.964 241.136 438.519C242.525 437.073 243.402 435.212 243.63 433.22L250.22 377.01L250.52 374.78L253.13 352.52L253.15 352.13ZM238.83 404.13H231.03L231.82 380.46H240.82L238.83 404.13ZM241.61 380.46H249.07L246.29 404.13H239.58L241.61 380.46ZM219.34 430.37L218.87 409.81H230.09L229.41 430.37H219.34ZM207.21 409.81H218.11L218.59 430.37H208.81L207.21 409.81ZM208.05 430.37H198.91C198.04 424.82 196.91 417.61 195.68 409.81H206.45L208.05 430.37ZM206.77 404.13L204.93 380.46H217.44L217.98 404.13H206.77ZM218.77 404.13L218.22 380.46H231.1L230.28 404.13H218.77ZM218.09 374.78L217.51 352.85H231.94L231.21 374.78H218.09ZM217.34 374.78H204.51L202.81 352.85H216.81L217.34 374.78ZM203.76 374.78H190.16C189.68 371.78 189.23 368.88 188.82 366.31C187.4 357.44 186.87 354.11 186.57 352.85H202.02L203.76 374.78ZM204.2 380.46L206.01 404.13H194.79C194.41 401.73 194.03 399.3 193.65 396.87C192.77 391.28 191.89 385.69 191.06 380.46H204.2ZM194.03 404.13H186.7L182.7 380.46H190.27C191.51 387.77 192.74 395.92 194.03 404.13ZM194.92 409.81C196.04 416.92 197.14 423.94 198.14 430.37H191.14L187.69 409.81H194.92ZM230.16 430.37L230.84 409.81H238.34L236.59 430.37H230.16ZM232.01 374.78L232.74 352.85H243.21L241.34 374.78H232.01ZM185.86 352.85C186.16 354.44 187.54 363.07 189.4 374.78H181.78L178.1 352.85H185.86ZM243.21 430.37H237.34L239.1 409.81H245.62L243.21 430.37ZM249.73 374.78H242.09L243.96 352.85H252.31L249.73 374.78Z" fill="#E0E0E0"/>
<path d="M383.01 0.300049H54.4V253.75H383.01V0.300049Z" fill="white"/>
<path d="M355.99 160.63H73.71V169.13H355.99V160.63Z" fill="#EBEBEB"/>
<path d="M355.85 149.36H73.5699V157.86H355.85V149.36Z" fill="#EBEBEB"/>
<path d="M355.85 137.94H73.5699V146.44H355.85V137.94Z" fill="#EBEBEB"/>
<path d="M355.85 126.52H73.5699V135.02H355.85V126.52Z" fill="#EBEBEB"/>
<path d="M355.99 172.3H73.71V180.8H355.99V172.3Z" fill="#EBEBEB"/>
<path d="M355.99 183.31H73.71V191.81H355.99V183.31Z" fill="#EBEBEB"/>
<path d="M355.99 194.77H73.71V203.27H355.99V194.77Z" fill="#EBEBEB"/>
<path d="M355.99 205.66H73.71V214.16H355.99V205.66Z" fill="#EBEBEB"/>
<path d="M355.99 216.13H73.71V224.63H355.99V216.13Z" fill="#EBEBEB"/>
<path d="M355.99 228.03H73.71V236.53H355.99V228.03Z" fill="#EBEBEB"/>
<path d="M383.34 0.0500488H54.4V18.91H383.34V0.0500488Z" fill="#3FA4DD"/>
<path d="M77.39 38.4299H75.39V37.6899H80.3V38.4299H78.3V43.6299H77.46L77.39 38.4299Z" fill="#263238"/>
<path d="M80.19 41.38C80.182 40.9156 80.3125 40.4593 80.5647 40.0692C80.817 39.6792 81.1796 39.3731 81.6064 39.1898C82.0332 39.0066 82.5049 38.9545 82.9615 39.0402C83.418 39.1259 83.8386 39.3456 84.1699 39.6712C84.5012 39.9968 84.728 40.4136 84.8216 40.8686C84.9152 41.3236 84.8713 41.7961 84.6954 42.226C84.5195 42.6559 84.2197 43.0238 83.834 43.2827C83.4484 43.5416 82.9944 43.6799 82.5299 43.68C82.2224 43.6939 81.9152 43.6442 81.6277 43.534C81.3402 43.4239 81.0785 43.2556 80.8589 43.0398C80.6393 42.824 80.4666 42.5652 80.3515 42.2796C80.2364 41.994 80.1814 41.6878 80.19 41.38ZM84.04 41.38C84.0282 41.0826 83.9294 40.7953 83.7558 40.5535C83.5823 40.3118 83.3416 40.1263 83.0636 40.0201C82.7856 39.9139 82.4825 39.8917 82.192 39.9561C81.9014 40.0206 81.6362 40.1689 81.4292 40.3827C81.2222 40.5964 81.0825 40.8663 81.0274 41.1587C80.9723 41.4512 81.0043 41.7534 81.1194 42.0278C81.2345 42.3023 81.4276 42.5369 81.6748 42.7026C81.922 42.8683 82.2124 42.9578 82.51 42.96C82.7172 42.9675 82.9237 42.9313 83.116 42.8539C83.3084 42.7765 83.4824 42.6595 83.6266 42.5105C83.7709 42.3616 83.8822 42.1839 83.9534 41.9892C84.0246 41.7944 84.0541 41.5869 84.04 41.38Z" fill="#263238"/>
<path d="M87.88 39.67C87.8786 39.5943 87.8924 39.5191 87.9205 39.4488C87.9485 39.3785 87.9903 39.3144 88.0433 39.2604C88.0964 39.2064 88.1597 39.1636 88.2295 39.1343C88.2993 39.105 88.3743 39.09 88.45 39.09C88.6038 39.09 88.7513 39.1511 88.8601 39.2598C88.9689 39.3686 89.03 39.5161 89.03 39.67C89.03 39.8238 88.9689 39.9713 88.8601 40.0801C88.7513 40.1889 88.6038 40.25 88.45 40.25C88.3743 40.25 88.2993 40.2349 88.2295 40.2056C88.1597 40.1764 88.0964 40.1335 88.0433 40.0795C87.9903 40.0255 87.9485 39.9615 87.9205 39.8912C87.8924 39.8209 87.8786 39.7457 87.88 39.67ZM87.88 43.09C87.8786 43.0143 87.8924 42.9391 87.9205 42.8688C87.9485 42.7985 87.9903 42.7344 88.0433 42.6804C88.0964 42.6264 88.1597 42.5836 88.2295 42.5543C88.2993 42.525 88.3743 42.51 88.45 42.51C88.5252 42.5099 88.5997 42.525 88.669 42.5544C88.7383 42.5838 88.8009 42.6269 88.8532 42.681C88.9055 42.7351 88.9463 42.7992 88.9732 42.8695C89.0002 42.9398 89.0127 43.0148 89.01 43.09C89.0126 43.1657 89.0002 43.2411 88.9734 43.3119C88.9465 43.3828 88.9059 43.4475 88.8537 43.5024C88.8016 43.5574 88.739 43.6014 88.6697 43.6319C88.6004 43.6623 88.5257 43.6787 88.45 43.68C88.3022 43.6801 88.1602 43.6228 88.0538 43.5201C87.9475 43.4175 87.8852 43.2776 87.88 43.13V43.09Z" fill="#263238"/>
<path d="M73.71 73.24L74.02 72.59C74.5693 73.0329 75.2544 73.273 75.96 73.27C76.96 73.27 77.41 72.87 77.41 72.36C77.41 70.93 73.86 71.83 73.86 69.65C73.86 68.75 74.56 67.97 76.1 67.97C76.7666 67.9603 77.4221 68.1407 77.99 68.49L77.71 69.17C77.23 68.8599 76.6714 68.6934 76.1 68.69C75.1 68.69 74.68 69.11 74.68 69.62C74.68 71.05 78.23 70.16 78.23 72.31C78.23 73.21 77.51 73.98 75.96 73.98C75.1464 74.0048 74.35 73.7429 73.71 73.24Z" fill="#263238"/>
<path d="M83.51 69.47V73.91H82.75V73.24C82.5748 73.4726 82.346 73.6595 82.0831 73.7849C81.8203 73.9102 81.531 73.9703 81.24 73.96C80.9803 73.9869 80.718 73.9553 80.4721 73.8677C80.2263 73.7801 80.0031 73.6385 79.819 73.4535C79.635 73.2685 79.4946 73.0446 79.4082 72.7983C79.3219 72.552 79.2917 72.2895 79.32 72.03V69.47H80.13V71.93C80.13 72.81 80.57 73.24 81.33 73.24C81.5218 73.252 81.7138 73.2214 81.8924 73.1503C82.0709 73.0792 82.2315 72.9694 82.3625 72.8289C82.4935 72.6883 82.5917 72.5204 82.6501 72.3373C82.7084 72.1542 82.7255 71.9604 82.7 71.77V69.47H83.51Z" fill="#263238"/>
<path d="M89.6099 71.6899C89.6254 71.9896 89.5784 72.2892 89.4717 72.5696C89.365 72.85 89.2011 73.1051 88.9903 73.3187C88.7796 73.5323 88.5266 73.6996 88.2477 73.81C87.9687 73.9204 87.6698 73.9715 87.3699 73.9599C87.0639 73.974 86.759 73.913 86.4819 73.7822C86.2048 73.6515 85.9638 73.4551 85.7799 73.2099V73.9099H85.0099V67.6899H85.81V70.1299C85.9962 69.8977 86.2344 69.7124 86.5053 69.589C86.7763 69.4657 87.0725 69.4078 87.3699 69.4199C87.6702 69.4069 87.9698 69.4569 88.2495 69.5668C88.5292 69.6766 88.7827 69.8439 88.9938 70.0578C89.2048 70.2717 89.3687 70.5274 89.4749 70.8086C89.581 71.0897 89.627 71.3899 89.6099 71.6899ZM88.7999 71.6899C88.7862 71.3966 88.6868 71.1138 88.5138 70.8765C88.3409 70.6392 88.1021 70.4579 87.8271 70.355C87.5521 70.2522 87.253 70.2322 86.9668 70.2978C86.6805 70.3633 86.4199 70.5114 86.217 70.7237C86.0142 70.936 85.8781 71.2032 85.8257 71.4921C85.7733 71.781 85.8068 72.0789 85.9221 72.349C86.0374 72.619 86.2294 72.8493 86.4743 73.0112C86.7193 73.1731 87.0063 73.2596 87.2999 73.2599C87.5046 73.2661 87.7083 73.2292 87.8978 73.1516C88.0873 73.0739 88.2583 72.9573 88.3998 72.8092C88.5413 72.6611 88.65 72.485 88.7189 72.2921C88.7879 72.0993 88.8155 71.8941 88.7999 71.6899Z" fill="#263238"/>
<path d="M89.1899 75.32L89.4499 74.7C89.6352 74.8442 89.8653 74.9185 90.0999 74.91C90.5299 74.91 90.7699 74.64 90.7699 74.13V69.47H91.5699V74.13C91.5928 74.3243 91.5723 74.5212 91.5098 74.7065C91.4472 74.8918 91.3443 75.061 91.2084 75.2016C91.0725 75.3423 90.9071 75.451 90.724 75.5199C90.5409 75.5888 90.3449 75.6162 90.1499 75.6C89.8077 75.6161 89.4699 75.5176 89.1899 75.32ZM90.6199 68.09C90.6212 68.0191 90.6365 67.9491 90.6648 67.8841C90.6932 67.8191 90.7341 67.7603 90.7851 67.7111C90.8362 67.6619 90.8965 67.6232 90.9625 67.5973C91.0285 67.5714 91.099 67.5587 91.1699 67.56C91.2738 67.564 91.3743 67.5983 91.4587 67.6589C91.5432 67.7195 91.608 67.8036 91.6451 67.9007C91.6822 67.9978 91.6899 68.1037 91.6672 68.2051C91.6446 68.3066 91.5926 68.3992 91.5177 68.4713C91.4429 68.5434 91.3484 68.592 91.2462 68.6108C91.144 68.6297 91.0384 68.6181 90.9428 68.5775C90.8471 68.5369 90.7655 68.469 90.7081 68.3823C90.6507 68.2956 90.62 68.194 90.6199 68.09Z" fill="#263238"/>
<path d="M97.11 71.96H93.51C93.5623 72.3409 93.7581 72.6875 94.0573 72.9291C94.3565 73.1707 94.7365 73.289 95.12 73.2599C95.3597 73.2684 95.5985 73.2245 95.8196 73.1312C96.0406 73.038 96.2387 72.8976 96.4 72.7199L96.85 73.24C96.6269 73.4812 96.3538 73.6706 96.0498 73.795C95.7457 73.9194 95.4181 73.9757 95.09 73.96C94.7802 73.9838 94.4689 73.9424 94.1761 73.8384C93.8833 73.7344 93.6157 73.5702 93.3904 73.3562C93.1651 73.1422 92.9873 72.8834 92.8683 72.5963C92.7494 72.3093 92.692 72.0005 92.7 71.6899C92.6875 71.3924 92.7364 71.0954 92.8437 70.8176C92.9509 70.5397 93.1142 70.2869 93.3234 70.0749C93.5326 69.8629 93.7832 69.6963 94.0596 69.5853C94.336 69.4743 94.6322 69.4215 94.93 69.43C95.2291 69.4208 95.5268 69.4745 95.8039 69.5876C96.0809 69.7007 96.3312 69.8706 96.5385 70.0864C96.7458 70.3022 96.9056 70.5591 97.0075 70.8404C97.1093 71.1218 97.1511 71.4214 97.13 71.7199C97.12 71.7799 97.11 71.88 97.11 71.96ZM93.5 71.3799H96.35C96.32 71.0226 96.1569 70.6896 95.893 70.4469C95.629 70.2041 95.2835 70.0694 94.925 70.0694C94.5664 70.0694 94.2209 70.2041 93.957 70.4469C93.693 70.6896 93.5299 71.0226 93.5 71.3799Z" fill="#263238"/>
<path d="M97.8199 71.69C97.8124 71.3834 97.8687 71.0787 97.9853 70.795C98.102 70.5114 98.2763 70.2552 98.4974 70.0426C98.7184 69.8301 98.9813 69.6658 99.2692 69.5604C99.5572 69.4549 99.8639 69.4105 100.17 69.43C100.528 69.4099 100.885 69.4866 101.204 69.652C101.522 69.8173 101.79 70.0654 101.98 70.37L101.37 70.77C101.242 70.5666 101.063 70.4004 100.851 70.2881C100.638 70.1757 100.4 70.1212 100.16 70.13C99.7665 70.1615 99.3993 70.34 99.1316 70.63C98.8638 70.9201 98.7151 71.3003 98.7151 71.695C98.7151 72.0897 98.8638 72.47 99.1316 72.76C99.3993 73.05 99.7665 73.2285 100.16 73.26C100.4 73.2688 100.638 73.2143 100.851 73.102C101.063 72.9896 101.242 72.8234 101.37 72.62L101.98 73.01C101.798 73.3258 101.533 73.5859 101.214 73.7621C100.895 73.9383 100.534 74.0241 100.17 74.01C99.8591 74.0286 99.5477 73.9816 99.2562 73.8719C98.9647 73.7623 98.6995 73.5926 98.4778 73.3738C98.2562 73.155 98.0831 72.892 97.9697 72.6019C97.8564 72.3118 97.8054 72.0011 97.8199 71.69Z" fill="#263238"/>
<path d="M105.58 73.65C105.293 73.8662 104.939 73.9758 104.58 73.96C104.391 73.9819 104.2 73.9612 104.02 73.8994C103.841 73.8376 103.677 73.7363 103.542 73.6029C103.407 73.4695 103.303 73.3074 103.239 73.1287C103.174 72.9499 103.151 72.759 103.17 72.57V70.13H102.42V69.47H103.17V68.47H103.98V69.47H105.25V70.13H103.98V72.54C103.966 72.6369 103.974 72.7358 104.004 72.8291C104.033 72.9225 104.084 73.008 104.151 73.0791C104.218 73.1503 104.301 73.2053 104.393 73.2401C104.484 73.2749 104.582 73.2885 104.68 73.28C104.908 73.2838 105.13 73.2097 105.31 73.07L105.58 73.65Z" fill="#263238"/>
<path d="M108.33 70.02C108.329 69.9448 108.342 69.8701 108.371 69.8003C108.399 69.7305 108.441 69.6672 108.494 69.614C108.547 69.5608 108.61 69.5188 108.68 69.4907C108.75 69.4625 108.825 69.4487 108.9 69.45C108.974 69.45 109.047 69.4649 109.115 69.4937C109.183 69.5226 109.245 69.5649 109.296 69.6181C109.347 69.6714 109.388 69.7344 109.414 69.8034C109.44 69.8725 109.453 69.9461 109.45 70.02C109.453 70.0944 109.44 70.1686 109.414 70.2382C109.388 70.3078 109.348 70.3715 109.297 70.4255C109.245 70.4795 109.184 70.5227 109.116 70.5527C109.048 70.5827 108.974 70.5988 108.9 70.6C108.824 70.6001 108.749 70.585 108.68 70.5557C108.61 70.5264 108.546 70.4836 108.493 70.4296C108.44 70.3756 108.399 70.3116 108.37 70.2412C108.342 70.1709 108.329 70.0957 108.33 70.02ZM108.33 73.41C108.329 73.3348 108.342 73.2601 108.371 73.1903C108.399 73.1206 108.441 73.0572 108.494 73.004C108.547 72.9508 108.61 72.9088 108.68 72.8807C108.75 72.8525 108.825 72.8387 108.9 72.84C108.974 72.84 109.047 72.8549 109.115 72.8837C109.183 72.9126 109.245 72.9549 109.296 73.0081C109.347 73.0613 109.388 73.1244 109.414 73.1934C109.44 73.2625 109.453 73.3361 109.45 73.41C109.453 73.4839 109.44 73.5576 109.414 73.6267C109.388 73.6957 109.347 73.7587 109.296 73.8119C109.245 73.8652 109.183 73.9075 109.115 73.9363C109.047 73.9652 108.974 73.9801 108.9 73.98C108.825 73.9814 108.75 73.9676 108.68 73.9394C108.61 73.9112 108.547 73.8693 108.494 73.8161C108.441 73.7629 108.399 73.6995 108.371 73.6298C108.342 73.56 108.329 73.4853 108.33 73.41Z" fill="#263238"/>
<path d="M65.97 9.47998C65.97 9.87554 65.8527 10.2622 65.6329 10.5911C65.4131 10.92 65.1008 11.1764 64.7353 11.3277C64.3699 11.4791 63.9678 11.5187 63.5798 11.4416C63.1918 11.3644 62.8355 11.1739 62.5558 10.8942C62.2761 10.6145 62.0856 10.2581 62.0084 9.87016C61.9312 9.4822 61.9708 9.08007 62.1222 8.71461C62.2736 8.34916 62.5299 8.03681 62.8588 7.81704C63.1877 7.59728 63.5744 7.47998 63.97 7.47998C64.5004 7.47998 65.0091 7.6907 65.3842 8.06577C65.7593 8.44084 65.97 8.94955 65.97 9.47998Z" fill="white"/>
<path d="M73.24 9.47998C73.24 9.87554 73.1227 10.2622 72.9029 10.5911C72.6832 10.92 72.3708 11.1764 72.0054 11.3277C71.6399 11.4791 71.2378 11.5187 70.8498 11.4416C70.4618 11.3644 70.1055 11.1739 69.8258 10.8942C69.5461 10.6145 69.3556 10.2581 69.2784 9.87016C69.2013 9.4822 69.2409 9.08007 69.3922 8.71461C69.5436 8.34916 69.7999 8.03681 70.1288 7.81704C70.4577 7.59728 70.8444 7.47998 71.24 7.47998C71.7704 7.47998 72.2791 7.6907 72.6542 8.06577C73.0293 8.44084 73.24 8.94955 73.24 9.47998Z" fill="white"/>
<path d="M80.5099 9.47998C80.5099 9.87554 80.3927 10.2622 80.1729 10.5911C79.9531 10.92 79.6408 11.1764 79.2753 11.3277C78.9099 11.4791 78.5077 11.5187 78.1198 11.4416C77.7318 11.3644 77.3754 11.1739 77.0957 10.8942C76.816 10.6145 76.6255 10.2581 76.5484 9.87016C76.4712 9.4822 76.5108 9.08007 76.6622 8.71461C76.8136 8.34916 77.0699 8.03681 77.3988 7.81704C77.7277 7.59728 78.1144 7.47998 78.5099 7.47998C79.0404 7.47998 79.5491 7.6907 79.9242 8.06577C80.2992 8.44084 80.5099 8.94955 80.5099 9.47998Z" fill="white"/>
<path d="M131.17 109.38C131.17 109.38 131.17 109.29 131.17 109.14V108.47C131.17 107.85 131.17 106.99 131.17 105.89C131.17 103.63 131.17 100.38 131.08 96.28L131.23 96.42L72.23 96.54L72.49 96.28V102.91C72.49 105.09 72.49 107.25 72.49 109.36L72.21 109.13L114.21 109.25L126.64 109.32H130H130.88H131.19H130.91H130.07H126.76L114.39 109.39L72.23 109.5H71.97V96.3L72.23 96.04L131.23 96.15H131.38V96.3C131.38 100.43 131.32 103.72 131.3 106C131.3 107.09 131.3 107.94 131.3 108.54V109.13C131.271 109.22 131.227 109.305 131.17 109.38Z" fill="#263238"/>
<path d="M167.57 109.38C167.556 109.297 167.556 109.213 167.57 109.13C167.57 108.94 167.57 108.71 167.57 108.44C167.57 107.79 167.57 106.92 167.52 105.81C167.52 103.52 167.47 100.27 167.42 96.28L167.61 96.46L135.33 96.54L135.59 96.28V102.99C135.59 105.19 135.59 107.31 135.59 109.36L135.34 109.11L158.41 109.23L165.15 109.3H166.97H167.62C167.424 109.314 167.226 109.314 167.03 109.3H165.26L158.58 109.37L135.34 109.49H135.09V102.87C135.09 101.78 135.09 100.67 135.09 99.54V96.16L135.35 95.9L167.63 95.97H167.81V96.16C167.81 100.16 167.73 103.48 167.71 105.8C167.71 106.89 167.71 107.8 167.71 108.39C167.71 108.98 167.58 109.39 167.57 109.38Z" fill="#263238"/>
<path d="M78.26 101.13H76.14V100.36H81.26V101.13H79.14V106.54H78.26V101.13Z" fill="#263238"/>
<path d="M81.83 100.42C81.8299 100.345 81.845 100.27 81.8744 100.201C81.9038 100.132 81.9468 100.069 82.001 100.017C82.0551 99.9645 82.1192 99.9237 82.1895 99.8967C82.2598 99.8698 82.3348 99.8573 82.41 99.86C82.483 99.8573 82.5559 99.8692 82.6243 99.8951C82.6927 99.9209 82.7552 99.9601 82.8083 100.01C82.8614 100.061 82.9039 100.121 82.9334 100.188C82.9628 100.255 82.9787 100.327 82.98 100.4C82.9615 100.539 82.893 100.667 82.7873 100.76C82.6815 100.853 82.5456 100.904 82.405 100.904C82.2643 100.904 82.1284 100.853 82.0226 100.76C81.9169 100.667 81.8484 100.539 81.83 100.4V100.42ZM81.98 101.87H82.83V106.55H81.98V101.87Z" fill="#263238"/>
<path d="M87.08 106.28C86.7927 106.498 86.4408 106.614 86.08 106.61C85.8804 106.634 85.678 106.612 85.4879 106.547C85.2977 106.481 85.1247 106.374 84.9816 106.233C84.8385 106.092 84.729 105.92 84.6612 105.731C84.5935 105.542 84.5691 105.34 84.59 105.14V102.57H83.8V101.87H84.59V100.87H85.44V101.87H86.78V102.57H85.44V105.13C85.44 105.64 85.7 105.92 86.17 105.92C86.4114 105.922 86.6469 105.845 86.84 105.7L87.08 106.28Z" fill="#263238"/>
<path d="M88.1 100H88.95V106.55H88.1V100Z" fill="#263238"/>
<path d="M94.78 104.49H90.98C91.0326 104.893 91.2386 105.261 91.5553 105.516C91.8719 105.771 92.2748 105.894 92.68 105.86C92.9322 105.871 93.1838 105.826 93.417 105.73C93.6502 105.633 93.8595 105.486 94.03 105.3L94.5 105.85C94.2661 106.104 93.9791 106.304 93.6595 106.436C93.3398 106.567 92.9952 106.627 92.65 106.61C92.3236 106.634 91.9958 106.589 91.6878 106.478C91.3798 106.368 91.0984 106.194 90.8619 105.968C90.6253 105.741 90.4389 105.468 90.3145 105.165C90.1902 104.863 90.1307 104.537 90.14 104.21C90.1261 103.896 90.1771 103.582 90.2898 103.289C90.4025 102.995 90.5744 102.728 90.7949 102.504C91.0153 102.279 91.2796 102.103 91.5713 101.985C91.8629 101.868 92.1756 101.812 92.49 101.82C92.8049 101.812 93.118 101.87 93.4091 101.991C93.7002 102.111 93.963 102.291 94.1805 102.519C94.398 102.747 94.5655 103.018 94.6722 103.314C94.7788 103.61 94.8224 103.926 94.8 104.24C94.7979 104.324 94.7912 104.407 94.78 104.49ZM90.98 103.88H93.98C93.9217 103.524 93.7388 103.201 93.4641 102.967C93.1893 102.734 92.8405 102.606 92.48 102.606C92.1195 102.606 91.7707 102.734 91.4959 102.967C91.2211 103.201 91.0383 103.524 90.98 103.88Z" fill="#263238"/>
<path d="M121.78 102.26H127.39L124.59 105.07L121.78 102.26Z" fill="#263238"/>
<path d="M157.42 102.26H163.03L160.22 105.07L157.42 102.26Z" fill="#263238"/>
<path d="M372.33 242.31C372.33 240.78 372.25 183.91 372.13 90.0701L372.33 90.2601L66.45 90.3301L66.71 90.0701C66.71 143.73 66.71 195.24 66.71 242.31L66.46 242.06L372.36 242.31L66.46 242.55H66.22V242.31C66.22 195.24 66.22 143.73 66.22 90.0701V89.8101H66.5L372.38 89.8801H372.51V90.0701C372.4 183.91 372.33 240.78 372.33 242.31Z" fill="#E0E0E0"/>
<path d="M372.33 84.26C372.33 84.26 372.33 83.66 372.33 82.53C372.33 81.4 372.33 79.71 372.33 77.53C372.33 73.12 372.33 66.62 372.27 58.25L372.38 58.35L66.03 58.51L66.29 58.25V84.25L66.03 83.99L283.49 84.1L348.59 84.17H366.23H370.81C371.81 84.17 372.39 84.17 372.39 84.17H370.85H366.3H348.72L283.72 84.25L66.07 84.36H65.71V57.96H65.98L372.33 58.13H372.43V58.23C372.43 66.63 372.38 73.14 372.37 77.57C372.37 79.76 372.37 81.44 372.37 82.57C372.37 83.7 372.33 84.26 372.33 84.26Z" fill="#E0E0E0"/>
<path d="M372.33 52.72C372.33 52.72 372.33 52.13 372.33 50.99C372.33 49.85 372.33 48.17 372.33 45.99C372.33 41.58 372.33 35.09 372.27 26.72L372.38 26.82L66.03 26.98L66.29 26.72V52.72L66.03 52.46L283.49 52.57L348.59 52.65H366.23H370.81H372.39H370.85H366.3H348.72L283.72 52.73L66.07 52.84H65.71V26.42H65.98L372.33 26.58H372.43V26.69C372.43 35.08 372.38 41.6 372.37 46.02C372.37 48.22 372.37 49.89 372.37 51.02C372.37 52.15 372.33 52.72 372.33 52.72Z" fill="#E0E0E0"/>
<path d="M292.69 97.44C292.207 97.4231 291.736 97.5939 291.377 97.9164C291.017 98.2389 290.796 98.6881 290.76 99.17V105.95C290.87 106.584 291.2 107.159 291.692 107.573C292.184 107.987 292.807 108.214 293.45 108.214C294.093 108.214 294.716 107.987 295.208 107.573C295.7 107.159 296.03 106.584 296.14 105.95V100.48H295.61V105.72C295.558 106.262 295.306 106.765 294.903 107.132C294.5 107.498 293.975 107.701 293.43 107.701C292.885 107.701 292.36 107.498 291.957 107.132C291.554 106.765 291.302 106.262 291.25 105.72V99.23C291.25 98.856 291.399 98.4974 291.663 98.233C291.927 97.9685 292.286 97.82 292.66 97.82C293.034 97.82 293.393 97.9685 293.657 98.233C293.921 98.4974 294.07 98.856 294.07 99.23V104.73C294.019 104.899 293.915 105.046 293.774 105.151C293.633 105.256 293.461 105.313 293.285 105.313C293.109 105.313 292.937 105.256 292.796 105.151C292.655 105.046 292.551 104.899 292.5 104.73V100.49H291.98V104.54V104.73C292.044 105.025 292.207 105.288 292.441 105.478C292.676 105.667 292.969 105.77 293.27 105.77C293.571 105.77 293.864 105.667 294.099 105.478C294.333 105.288 294.496 105.025 294.56 104.73V104.62C294.56 104.62 294.56 104.56 294.56 104.53V99.13C294.513 98.6667 294.296 98.2374 293.95 97.9252C293.605 97.613 293.156 97.4401 292.69 97.44Z" fill="#263238"/>
<path d="M221.32 100.43H213.61V101.65H221.32V100.43Z" fill="#263238"/>
<path d="M221.32 104.88H213.61V106.1H221.32V104.88Z" fill="#263238"/>
<path d="M217.47 102.73H213.61V103.95H217.47V102.73Z" fill="#263238"/>
<path d="M250.27 100.43H242.56V101.65H250.27V100.43Z" fill="#263238"/>
<path d="M250.27 104.88H242.56V106.1H250.27V104.88Z" fill="#263238"/>
<path d="M250.27 102.73H246.41V103.95H250.27V102.73Z" fill="#263238"/>
<path d="M235.99 100.43H228.28V101.65H235.99V100.43Z" fill="#263238"/>
<path d="M235.99 104.88H228.28V106.1H235.99V104.88Z" fill="#263238"/>
<path d="M235.99 102.73H228.28V103.95H235.99V102.73Z" fill="#263238"/>
<path d="M269.58 105.7H263.27V100.52H266.54V101.61H264.37V104.6H268.49V103.52H269.58V105.7Z" fill="#263238"/>
<path d="M273.21 105.7H270.53V104.6H272.12V101.61H268V103.01H266.91V100.52H273.21V105.7Z" fill="#263238"/>
<path d="M275.77 102.7H279.13L277.45 104.26L275.77 102.7Z" fill="#263238"/>
<path d="M199.83 103.23V100.32H200.83V103.19C200.83 104.25 201.31 104.71 202.14 104.71C202.97 104.71 203.44 104.25 203.44 103.19V100.32H204.38V103.23C204.401 103.539 204.357 103.849 204.253 104.14C204.149 104.431 203.987 104.698 203.775 104.924C203.564 105.15 203.308 105.33 203.024 105.454C202.741 105.577 202.434 105.64 202.125 105.64C201.816 105.64 201.509 105.577 201.225 105.454C200.942 105.33 200.686 105.15 200.475 104.924C200.263 104.698 200.1 104.431 199.996 104.14C199.892 103.849 199.849 103.539 199.87 103.23H199.83Z" fill="#263238"/>
<path d="M191.18 99.74H192.04L190.83 105.74H189.97L191.18 99.74Z" fill="#263238"/>
<path d="M183.09 104.13C183.09 105.13 182.23 105.78 180.61 105.78H177.37V99.78H180.44C182.02 99.78 182.8 100.43 182.8 101.36C182.803 101.631 182.729 101.898 182.585 102.129C182.442 102.359 182.235 102.543 181.99 102.66C182.309 102.752 182.588 102.945 182.787 103.21C182.986 103.476 183.092 103.799 183.09 104.13ZM179.09 100.99V102.13H180.26C180.83 102.13 181.12 101.94 181.12 101.55C181.12 101.16 180.83 100.97 180.26 100.97L179.09 100.99ZM181.41 103.94C181.41 103.53 181.1 103.33 180.52 103.33H179.09V104.55H180.51C181.06 104.53 181.37 104.33 181.37 103.92L181.41 103.94Z" fill="#263238"/>
<path d="M208.94 109.74C208.683 107.446 208.596 105.137 208.68 102.83C208.596 100.52 208.683 98.2071 208.94 95.91C209.203 98.2067 209.29 100.52 209.2 102.83C209.29 105.137 209.203 107.447 208.94 109.74Z" fill="#E0E0E0"/>
<path d="M254.77 109.74C254.507 107.447 254.42 105.137 254.51 102.83C254.42 100.52 254.507 98.2067 254.77 95.91C255.027 98.2071 255.114 100.52 255.03 102.83C255.114 105.137 255.027 107.446 254.77 109.74Z" fill="#E0E0E0"/>
<path d="M282.51 110.02C282.253 107.726 282.166 105.417 282.25 103.11C282.166 100.803 282.253 98.4937 282.51 96.2C282.767 98.4937 282.854 100.803 282.77 103.11C282.854 105.417 282.767 107.726 282.51 110.02Z" fill="#E0E0E0"/>
<path d="M303.51 109.61C303.253 107.316 303.166 105.007 303.25 102.7C303.166 100.39 303.253 98.0771 303.51 95.78C303.78 98.0762 303.87 100.39 303.78 102.7C303.87 105.007 303.78 107.317 303.51 109.61Z" fill="#E0E0E0"/>
<path d="M205.39 106.24C203.338 106.587 201.242 106.587 199.19 106.24C201.242 105.893 203.338 105.893 205.39 106.24Z" fill="#263238"/>
<path d="M144.77 99.74V105.74H143.92V100.47H142.56V99.72L144.77 99.74Z" fill="#263238"/>
<path d="M150.31 105.01V105.76H145.99V105.13L148.44 102.77C149.08 102.15 149.2 101.77 149.2 101.4C149.2 100.78 148.76 100.4 147.92 100.4C147.631 100.385 147.342 100.435 147.075 100.548C146.808 100.66 146.571 100.832 146.38 101.05L145.79 100.55C146.066 100.245 146.407 100.005 146.788 99.8476C147.168 99.6902 147.579 99.6193 147.99 99.64C149.25 99.64 150.05 100.28 150.05 101.31C150.038 101.68 149.942 102.043 149.769 102.371C149.596 102.698 149.35 102.982 149.05 103.2L147.21 104.97L150.31 105.01Z" fill="#263238"/>
<path d="M372.33 116.24C372.33 116.38 303.73 116.5 219.13 116.5C134.53 116.5 65.92 116.38 65.92 116.24C65.92 116.1 134.5 115.98 219.13 115.98C303.76 115.98 372.33 116.13 372.33 116.24Z" fill="#E0E0E0"/>
<path d="M353.43 131.41C353.43 131.55 291.14 131.67 214.31 131.67C137.48 131.67 75.18 131.55 75.18 131.41C75.18 131.27 137.51 131.13 214.31 131.13C291.11 131.13 353.43 131.26 353.43 131.41Z" fill="#263238"/>
<path d="M353.43 142.68C353.43 142.83 291.14 142.94 214.31 142.94C137.48 142.94 75.18 142.83 75.18 142.68C75.18 142.53 137.46 142.42 214.31 142.42C291.16 142.42 353.43 142.54 353.43 142.68Z" fill="#263238"/>
<path d="M353.43 153.96C353.43 154.1 291.14 154.22 214.31 154.22C137.48 154.22 75.18 154.13 75.18 153.96C75.18 153.79 137.46 153.7 214.31 153.7C291.16 153.7 353.43 153.81 353.43 153.96Z" fill="#263238"/>
<path d="M353.43 165.23C353.43 165.38 291.14 165.49 214.31 165.49C137.48 165.49 75.18 165.38 75.18 165.23C75.18 165.08 137.46 164.97 214.31 164.97C291.16 164.97 353.43 165.13 353.43 165.23Z" fill="#263238"/>
<path d="M353.43 176.51C353.43 176.65 291.14 176.77 214.31 176.77C137.48 176.77 75.18 176.65 75.18 176.51C75.18 176.37 137.46 176.25 214.31 176.25C291.16 176.25 353.43 176.36 353.43 176.51Z" fill="#263238"/>
<path d="M353.43 187.78C353.43 187.93 291.14 188.04 214.31 188.04C137.48 188.04 75.18 187.93 75.18 187.78C75.18 187.63 137.46 187.52 214.31 187.52C291.16 187.52 353.43 187.64 353.43 187.78Z" fill="#263238"/>
<path d="M353.43 199.06C353.43 199.2 291.14 199.32 214.31 199.32C137.48 199.32 75.18 199.2 75.18 199.06C75.18 198.92 137.46 198.8 214.31 198.8C291.16 198.8 353.43 198.91 353.43 199.06Z" fill="#263238"/>
<path d="M353.63 209.93C353.63 210.07 291.34 210.19 214.51 210.19C137.68 210.19 75.38 210.07 75.38 209.93C75.38 209.79 137.66 209.67 214.51 209.67C291.36 209.67 353.63 209.79 353.63 209.93Z" fill="#263238"/>
<path d="M353.83 220.8C353.83 220.95 291.54 221.06 214.72 221.06C137.9 221.06 75.58 220.95 75.58 220.8C75.58 220.65 137.86 220.54 214.72 220.54C291.58 220.54 353.83 220.66 353.83 220.8Z" fill="#263238"/>
<path d="M75.79 231.67C75.79 231.53 138.08 231.41 214.9 231.41C291.72 231.41 354.03 231.53 354.03 231.67C354.03 231.81 291.75 231.93 214.9 231.93C138.05 231.93 75.79 231.82 75.79 231.67Z" fill="#263238"/>
<path d="M383.01 253.75C383.01 251.97 382.93 153.4 382.8 0.299999L383.01 0.52H54.43L54.69 0.260002C54.69 91.56 54.69 177.94 54.69 253.71L54.46 253.48L383.07 253.71L54.46 253.95H54.22V253.71C54.22 177.94 54.22 91.56 54.22 0.260002V0H54.51L383.01 0.130001H383.23V0.34C383.1 153.4 383.01 251.97 383.01 253.75Z" fill="#263238"/>
<path d="M254.51 79V100.8C254.51 102.731 255.277 104.582 256.642 105.948C258.008 107.313 259.859 108.08 261.79 108.08H288.51C288.898 108.08 289.281 108.17 289.628 108.344C289.975 108.517 290.277 108.77 290.51 109.08L297.05 123.33L304.93 109.33C305.168 109.064 305.459 108.851 305.785 108.704C306.11 108.558 306.463 108.481 306.82 108.48H334.82C336.747 108.456 338.587 107.669 339.934 106.291C341.282 104.913 342.029 103.057 342.01 101.13V78.86C342.01 77.9036 341.821 76.9566 341.455 76.0733C341.088 75.1899 340.551 74.3876 339.874 73.7122C339.196 73.0369 338.393 72.5018 337.508 72.1376C336.624 71.7735 335.676 71.5874 334.72 71.59L261.82 71.72C260.861 71.716 259.912 71.9014 259.025 72.2655C258.138 72.6296 257.332 73.1652 256.653 73.8416C255.974 74.518 255.435 75.3219 255.067 76.2071C254.699 77.0923 254.51 78.0414 254.51 79Z" fill="#3FA4DD"/>
<path d="M272.85 97.83H268.29V93.53L278.79 82.06L279 82.01C279.559 81.7842 280.167 81.7097 280.764 81.7939C281.361 81.8782 281.925 82.1183 282.4 82.49C283.73 83.71 283.4 85.94 283.32 86.19V86.41L272.85 97.83ZM269.85 96.32H272.23L281.92 85.72C281.987 85.3519 281.979 84.9739 281.894 84.6093C281.81 84.2447 281.652 83.9012 281.43 83.6C281.171 83.4269 280.873 83.3193 280.563 83.2862C280.253 83.2531 279.94 83.2956 279.65 83.41L269.85 94.11V96.32Z" fill="white"/>
<path d="M302.51 94.93V96.42H293.84V84.48H302.27V85.96H295.55V89.63H301.55V91.13H295.55V94.98L302.51 94.93Z" fill="white"/>
<path d="M313.51 83.76V96.42H311.94V94.98C311.57 95.4807 311.083 95.8831 310.522 96.1516C309.961 96.4201 309.342 96.5466 308.72 96.52C307.533 96.4647 306.413 95.9544 305.593 95.0949C304.773 94.2355 304.315 93.0931 304.315 91.905C304.315 90.7169 304.773 89.5745 305.593 88.715C306.413 87.8556 307.533 87.3453 308.72 87.29C309.323 87.2685 309.923 87.3884 310.472 87.6402C311.021 87.8919 311.503 88.2686 311.88 88.74V83.74L313.51 83.76ZM311.89 91.9C311.853 91.3162 311.646 90.7559 311.295 90.2882C310.943 89.8205 310.463 89.4657 309.912 89.2674C309.362 89.0692 308.766 89.0363 308.197 89.1726C307.628 89.3089 307.111 89.6086 306.711 90.0348C306.31 90.4609 306.042 90.9949 305.941 91.5711C305.84 92.1473 305.909 92.7405 306.141 93.2777C306.373 93.8149 306.756 94.2726 307.245 94.5946C307.733 94.9166 308.305 95.0888 308.89 95.09C309.299 95.0881 309.703 95.0027 310.077 94.8389C310.452 94.6752 310.789 94.4367 311.068 94.138C311.347 93.8392 311.562 93.4866 311.7 93.1018C311.838 92.7169 311.896 92.308 311.87 91.9H311.89Z" fill="white"/>
<path d="M316.32 84.58C316.319 84.4361 316.346 84.2934 316.401 84.1604C316.456 84.0274 316.538 83.9069 316.64 83.8061C316.743 83.7053 316.865 83.6262 316.999 83.5736C317.133 83.521 317.276 83.496 317.42 83.5C317.7 83.4864 317.973 83.5839 318.181 83.7712C318.389 83.9586 318.514 84.2206 318.53 84.5C318.534 84.6465 318.508 84.7922 318.454 84.9283C318.399 85.0643 318.318 85.1877 318.214 85.2908C318.11 85.3939 317.985 85.4746 317.849 85.5278C317.712 85.581 317.566 85.6056 317.42 85.6C317.281 85.6054 317.142 85.5832 317.011 85.5349C316.881 85.4865 316.761 85.4128 316.659 85.3181C316.556 85.2234 316.474 85.1094 316.416 84.9828C316.358 84.8561 316.325 84.7193 316.32 84.58ZM316.61 87.37H318.24V96.37H316.61V87.37Z" fill="white"/>
<path d="M326.45 95.89C325.876 96.3252 325.169 96.5478 324.45 96.52C324.066 96.5639 323.678 96.5212 323.313 96.395C322.948 96.2688 322.616 96.0623 322.341 95.7907C322.067 95.5191 321.857 95.1893 321.727 94.8258C321.597 94.4622 321.55 94.074 321.59 93.69V88.69H320.05V87.34H321.59V85.34H323.22V87.34H325.82V88.69H323.22V93.59C323.193 93.7874 323.21 93.9883 323.27 94.1783C323.33 94.3682 323.432 94.5423 323.568 94.6879C323.704 94.8335 323.871 94.947 324.056 95.02C324.242 95.093 324.441 95.1237 324.64 95.11C325.103 95.113 325.553 94.9617 325.92 94.68L326.45 95.89Z" fill="white"/>
<path d="M96.83 415.83C94.21 415.7 93.4401 412.01 94.4201 409.58C95.4001 407.15 97.31 404.99 97.34 402.37C97.34 400.1 95.92 398.04 95.78 395.77C95.53 391.68 99.49 388.34 99.66 384.25C99.79 381.05 97.57 378.01 98.11 374.86C98.68 371.48 102.21 369.27 103.02 365.93C103.88 362.39 101.42 358.63 102.36 355.11C103.3 351.59 107.44 349.01 106.85 345.43C106.503 344.278 106.092 343.147 105.62 342.04C104.88 339.37 106.34 336.57 108.11 334.43C109.88 332.29 112.05 330.43 113.11 327.84C114.8 323.92 113.63 319.14 115.61 315.36C117.27 312.22 120.95 310.1 121.41 306.58C123.27 309.75 121.41 313.78 121.87 317.44C122.15 319.82 123.39 321.97 124.14 324.25C124.903 326.581 125.173 329.045 124.934 331.486C124.695 333.927 123.951 336.291 122.75 338.43C121.15 341.24 118.69 343.9 118.81 347.13C118.96 351.04 122.88 353.88 123.57 357.73C124.57 363.24 118.69 368.2 119.5 373.73C119.71 375.16 120.36 376.51 120.5 377.95C120.91 382.85 115.36 386.31 114.5 391.16C113.88 394.72 115.94 398.4 115.09 401.92C114.43 404.63 112.09 407.06 112.66 409.79C113.055 410.932 113.557 412.033 114.16 413.08C114.609 414.15 114.754 415.324 114.577 416.471C114.401 417.618 113.91 418.694 113.16 419.58C112.38 420.439 111.348 421.027 110.212 421.261C109.076 421.495 107.895 421.361 106.84 420.88" fill="#3FA4DD"/>
<g opacity="0.5">
<path d="M114.19 413.13C113.587 412.083 113.085 410.982 112.69 409.84C112.12 407.11 114.46 404.68 115.12 401.97C115.97 398.45 113.91 394.77 114.53 391.21C115.38 386.36 120.93 382.9 120.53 378C120.4 376.56 119.75 375.21 119.53 373.78C118.72 368.24 124.59 363.28 123.6 357.78C122.91 353.93 119 351.09 118.84 347.18C118.72 343.95 121.18 341.29 122.78 338.48C123.981 336.342 124.725 333.977 124.964 331.536C125.203 329.095 124.933 326.631 124.17 324.3C123.42 322.02 122.17 319.87 121.9 317.49C121.48 313.83 123.3 309.8 121.44 306.63C120.98 310.15 117.3 312.27 115.64 315.41C113.64 319.19 114.83 323.97 113.14 327.89C112.05 330.44 109.88 332.34 108.14 334.48C106.4 336.62 104.91 339.42 105.65 342.09C106.122 343.197 106.533 344.328 106.88 345.48C107.47 349.06 103.33 351.64 102.39 355.16C101.45 358.68 103.91 362.44 103.05 365.98C102.24 369.32 98.71 371.53 98.14 374.91C97.6 378.06 99.82 381.1 99.69 384.3C99.52 388.39 95.56 391.73 95.81 395.82C95.95 398.09 97.39 400.15 97.37 402.42C97.37 405.04 95.37 407.2 94.45 409.63C93.53 412.06 94.24 415.75 96.86 415.88L106.92 420.94C107.975 421.421 109.156 421.555 110.292 421.321C111.428 421.087 112.46 420.499 113.24 419.64C113.984 418.748 114.466 417.668 114.634 416.519C114.802 415.37 114.648 414.197 114.19 413.13Z" fill="white"/>
</g>
<path d="M110.78 410.7C110.087 409.531 109.74 408.189 109.78 406.83C110.05 405.33 112.58 404.02 113.21 401.48C114.02 398.18 112.55 392.36 113.21 389.03C114.06 384.52 118.73 381.55 118.54 377.03C118.48 375.71 118.67 372.19 118.54 370.89C118.04 365.84 122.48 362.45 121.83 357.43C121.38 353.93 117.75 349.82 117.74 346.23C117.74 343.23 119.87 340.66 121.28 337.97C123.417 333.934 123.987 329.251 122.88 324.82C122.33 322.77 121.37 320.82 121.22 318.7C120.98 315.36 122.62 311.52 121.22 308.7C120.73 311.98 117.61 314.17 116.14 317.17C114.38 320.78 115.2 325.1 113.68 328.82C112.68 331.24 110.84 333.13 109.3 335.22C107.76 337.31 106.47 339.97 107 342.39C107.358 343.373 107.662 344.374 107.91 345.39C108.29 348.66 104.78 351.3 103.91 354.6C103.04 357.9 104.91 361.2 104.11 364.52C103.34 367.64 100.28 371.88 99.7 375.03C99.15 377.97 101.81 379.88 101.6 382.82C101.34 386.61 97.6 391.18 97.6 394.93C97.6 397.01 99.39 397.68 99.3 399.77C99.19 402.18 97.17 406.98 96.3 409.28C95.8279 410.319 95.6375 411.464 95.7481 412.599C95.8587 413.735 96.2663 414.822 96.93 415.75L108.17 421.33C113.08 419.02 112.86 414.13 110.78 410.7Z" fill="#3FA4DD"/>
<path d="M118.33 325.84C118.345 325.923 118.345 326.007 118.33 326.09C118.33 326.28 118.33 326.52 118.33 326.82C118.33 327.47 118.33 328.41 118.21 329.63C118.116 331.122 117.779 332.588 117.21 333.97C116.55 335.62 115.15 337.1 113.83 338.8C113.115 339.668 112.569 340.661 112.22 341.73C111.867 342.895 111.731 344.116 111.82 345.33C111.94 347.87 112.72 350.51 113.09 353.39C113.314 354.877 113.263 356.392 112.94 357.86C112.751 358.621 112.454 359.352 112.06 360.03C111.629 360.674 111.235 361.341 110.88 362.03C110.376 363.504 110.351 365.101 110.81 366.59C110.97 367.38 111.15 368.18 111.25 369.01C111.337 369.853 111.313 370.703 111.18 371.54C110.868 373.173 110.347 374.76 109.63 376.26C108.963 377.7 108.385 379.179 107.9 380.69C107.479 382.13 107.347 383.639 107.51 385.13C107.728 386.606 107.782 388.102 107.67 389.59C107.405 390.988 106.926 392.338 106.25 393.59C105.625 394.742 105.148 395.968 104.83 397.24C104.36 399.72 105.06 402.1 105.01 404.3C104.88 406.275 104.445 408.218 103.72 410.06C103.199 411.439 102.83 412.871 102.62 414.33C102.503 415.253 102.599 416.19 102.9 417.07C103.13 417.66 103.31 417.95 103.28 417.97C103.1 417.695 102.946 417.403 102.82 417.1C102.474 416.213 102.344 415.257 102.44 414.31C102.612 412.834 102.947 411.382 103.44 409.98C104.134 408.16 104.542 406.244 104.65 404.3C104.65 403.22 104.5 402.1 104.38 400.91C104.196 399.667 104.196 398.403 104.38 397.16C104.87 394.56 106.78 392.33 107.17 389.52C107.271 388.061 107.214 386.596 107 385.15C106.822 383.593 106.954 382.016 107.39 380.51C108.25 377.44 110.12 374.65 110.66 371.41C110.785 370.613 110.805 369.802 110.72 369C110.63 368.2 110.45 367.41 110.29 366.62C109.811 365.036 109.85 363.341 110.4 361.78C110.763 361.09 111.167 360.422 111.61 359.78C111.981 359.137 112.263 358.448 112.45 357.73C112.759 356.311 112.81 354.847 112.6 353.41C112.25 350.58 111.47 347.91 111.36 345.32C111.279 344.06 111.431 342.795 111.81 341.59C112.181 340.495 112.751 339.479 113.49 338.59C114.86 336.88 116.24 335.45 116.9 333.86C117.476 332.504 117.837 331.067 117.97 329.6C118.1 328.4 118.13 327.45 118.17 326.81C118.17 326.51 118.17 326.27 118.17 326.08C118.17 325.89 118.33 325.84 118.33 325.84Z" fill="#263238"/>
<path d="M80.77 417.13C77.11 417.66 75.03 412.76 75.72 409.13C76.41 405.5 78.48 401.98 77.8 398.34C77.21 395.19 74.64 392.73 73.8 389.62C72.33 384.02 76.9 378.32 76.01 372.62C75.32 368.16 71.41 364.55 71.29 360.04C71.2 355.13 75.51 351.13 75.68 346.29C75.9 341.13 71.46 336.61 71.81 331.47C72.16 326.33 77.17 321.63 75.37 316.82C74.78 315.23 73.5 313.99 72.74 312.47C70.98 308.97 72.24 304.7 74.11 301.25C75.98 297.8 78.46 294.57 79.28 290.73C80.53 284.84 77.6 278.54 79.28 272.73C80.71 267.92 85.28 263.98 84.9 258.97C88.36 262.86 86.9 268.97 88.52 273.9C89.52 277.12 91.86 279.76 93.52 282.71C95.2192 285.724 96.2743 289.057 96.6185 292.5C96.9628 295.943 96.5887 299.419 95.52 302.71C94.07 307.04 91.39 311.39 92.44 315.84C93.73 321.21 99.93 324.07 101.94 329.22C104.82 336.59 98.04 345.07 100.69 352.53C101.37 354.45 102.69 356.13 103.21 358.1C105.13 364.77 98.38 371.1 98.53 378.03C98.65 383.14 102.53 387.68 102.29 392.78C102.13 396.72 99.55 400.78 101.09 404.35C101.76 405.92 103.09 407.09 104.09 408.51C105.008 409.864 105.533 411.446 105.608 413.081C105.682 414.715 105.302 416.338 104.51 417.77C103.667 419.175 102.398 420.274 100.887 420.909C99.3769 421.543 97.7036 421.68 96.11 421.3" fill="#3FA4DD"/>
<g opacity="0.5">
<path d="M104.08 408.57C103.08 407.15 101.77 405.98 101.08 404.41C99.54 400.79 102.08 396.78 102.28 392.84C102.5 387.74 98.64 383.2 98.52 378.09C98.37 371.15 105.12 364.83 103.2 358.16C102.63 356.16 101.36 354.51 100.68 352.59C98.03 345.13 104.81 336.65 101.93 329.28C99.93 324.13 93.72 321.28 92.43 315.9C91.43 311.45 94.07 307.1 95.51 302.77C96.5787 299.479 96.9528 296.003 96.6085 292.56C96.2643 289.118 95.2092 285.784 93.51 282.77C91.84 279.82 89.51 277.18 88.51 273.96C86.93 269.01 88.35 262.96 84.89 259.03C85.22 264.03 80.7 267.98 79.27 272.79C77.55 278.57 80.48 284.87 79.27 290.79C78.45 294.63 75.96 297.86 74.1 301.31C72.24 304.76 70.97 309.03 72.73 312.53C73.49 314.05 74.73 315.29 75.36 316.88C77.16 321.69 72.13 326.4 71.8 331.53C71.47 336.66 75.89 341.19 75.67 346.35C75.51 351.13 71.2 355.13 71.33 360C71.44 364.51 75.33 368.12 76.04 372.58C76.93 378.3 72.36 384 73.83 389.58C74.64 392.69 77.21 395.15 77.83 398.3C78.51 401.94 76.43 405.46 75.75 409.09C75.07 412.72 77.14 417.63 80.8 417.09L96.13 421.33C97.7236 421.71 99.3969 421.573 100.907 420.939C102.418 420.304 103.687 419.205 104.53 417.8C105.312 416.369 105.683 414.75 105.604 413.122C105.524 411.493 104.997 409.918 104.08 408.57Z" fill="white"/>
</g>
<path d="M98.69 406.18C97.69 405.08 96.26 402.63 96.23 401.1C96.23 398.95 99.34 396.43 99.52 392.74C99.75 387.95 96.11 380.28 96.07 375.51C96.07 369.02 101.67 363.62 100.18 357.46C99.74 355.65 99.03 350.72 98.5 348.95C96.42 342.09 101.64 336.18 99.37 329.41C97.79 324.68 91.63 319.98 90.64 315.01C89.82 310.9 92.06 306.71 93.28 302.59C95.1341 296.411 94.639 289.766 91.89 283.93C90.56 281.25 88.72 278.88 87.89 275.93C86.64 271.37 87.89 265.6 85.09 262.12C85.3 266.8 81.59 270.68 80.38 275.24C78.92 280.73 81.24 286.49 80.16 292.06C79.45 295.69 77.4 298.81 75.84 302.12C74.28 305.43 73.22 309.48 74.61 312.69C75.22 314.07 76.24 315.18 76.71 316.64C78.13 321.06 73.99 325.69 73.71 330.5C73.43 335.31 76.94 339.37 76.71 344.19C76.49 348.73 73.42 355.44 73.47 359.96C73.47 364.18 77.73 366.09 78.25 370.24C78.91 375.55 74.91 382.93 76.05 388.1C76.68 390.97 79.27 391.42 79.72 394.34C80.23 397.71 78.72 404.91 78.16 408.34C77.6 411.77 78.16 414.21 80.8 417.14L97.9 421.78C104.17 417.13 102.51 410.38 98.69 406.18Z" fill="#3FA4DD"/>
<path d="M85.92 286.55C86.322 288.29 86.6159 290.054 86.8 291.83C87.0537 293.919 86.9761 296.035 86.57 298.1C86.2759 299.385 85.8224 300.628 85.22 301.8C84.61 303.06 83.87 304.32 83.22 305.69C82.4604 307.096 81.9752 308.633 81.79 310.22C81.6196 311.938 81.7619 313.673 82.21 315.34C83.07 318.84 84.88 322.34 86.21 326.17C86.92 328.162 87.259 330.266 87.21 332.38C87.1508 333.477 86.9422 334.56 86.59 335.6C86.1657 336.599 85.7951 337.621 85.48 338.66C84.97 340.79 85.77 342.99 86.65 345.06C87.09 346.11 87.55 347.17 87.91 348.29C88.2599 349.426 88.4616 350.602 88.51 351.79C88.5133 354.13 88.2278 356.46 87.66 358.73C87.1244 360.91 86.7236 363.121 86.46 365.35C86.3549 366.427 86.3549 367.513 86.46 368.59C86.5918 369.648 86.816 370.692 87.13 371.71C87.8367 373.687 88.3197 375.736 88.57 377.82C88.6003 379.83 88.31 381.832 87.71 383.75C87.1459 385.52 86.8099 387.355 86.71 389.21C86.7635 390.939 87.0701 392.65 87.62 394.29C88.1259 395.824 88.5531 397.383 88.9 398.96C89.1658 400.414 89.2364 401.897 89.11 403.37C89.02 404.76 88.86 406.06 88.7 407.27C88.3583 409.328 88.2476 411.418 88.37 413.5C88.4638 414.813 88.8608 416.086 89.53 417.22C90.01 417.98 90.34 418.33 90.32 418.35C89.997 418.018 89.7057 417.656 89.45 417.27C88.743 416.136 88.3114 414.851 88.19 413.52C88.0446 411.424 88.1318 409.317 88.45 407.24C88.59 406.03 88.75 404.73 88.83 403.36C88.9361 401.909 88.8554 400.45 88.59 399.02C88.2354 397.456 87.8015 395.91 87.29 394.39C86.6996 392.723 86.3626 390.977 86.29 389.21C86.3942 387.323 86.7301 385.455 87.29 383.65C87.8737 381.773 88.1539 379.815 88.12 377.85C87.8602 375.804 87.3808 373.793 86.69 371.85C86.3625 370.81 86.1316 369.742 86 368.66C85.8899 367.553 85.8899 366.437 86 365.33C86.2592 363.084 86.66 360.856 87.2 358.66C87.7598 356.427 88.0419 354.133 88.04 351.83C87.9934 350.683 87.7984 349.547 87.46 348.45C87.11 347.36 86.65 346.31 86.21 345.25C85.7417 344.202 85.367 343.114 85.09 342C84.8054 340.88 84.7849 339.709 85.03 338.58C85.349 337.523 85.7262 336.485 86.16 335.47C86.5016 334.469 86.7035 333.426 86.76 332.37C86.7989 330.309 86.4599 328.259 85.76 326.32C84.49 322.48 82.69 319.01 81.83 315.45C81.3722 313.74 81.2366 311.96 81.43 310.2C81.626 308.577 82.1282 307.006 82.91 305.57C83.61 304.19 84.36 302.93 84.98 301.7C85.5784 300.551 86.0319 299.331 86.33 298.07C86.7549 296.029 86.8562 293.933 86.63 291.86C86.48 290.15 86.26 288.86 86.12 287.94C86.06 287.507 86.01 287.173 85.97 286.94C85.9341 286.813 85.9173 286.682 85.92 286.55Z" fill="#263238"/>
<path d="M78.51 419.53C76.42 420.53 74.23 418.02 73.94 415.71C73.65 413.4 74.21 410.9 73.1 408.85C72.1 407.08 70.1 406.1 69.04 404.4C67.04 401.33 68.71 397.04 67.04 393.78C65.76 391.25 62.73 389.84 61.79 387.17C60.79 384.3 62.55 381.05 61.79 378.12C60.93 374.99 57.4 373.12 56.61 370C55.82 366.88 57.92 363.07 55.91 360.54C55.1439 359.802 54.3394 359.104 53.5 358.45C51.77 356.69 51.69 353.89 52.15 351.45C52.61 349.01 53.46 346.61 53.21 344.15C52.82 340.38 49.85 337.15 49.76 333.39C49.69 330.23 51.63 327 50.47 324.07C53.28 325.72 53.61 329.65 55.47 332.3C56.71 334.03 58.6 335.16 60.17 336.6C61.7609 338.086 63.0265 339.886 63.8871 341.886C64.7476 343.886 65.1845 346.043 65.17 348.22C65.17 351.09 64.38 354.22 65.87 356.67C67.67 359.67 71.94 360.15 74.14 362.84C77.29 366.7 74.87 373.08 77.89 377.03C78.67 378.03 79.76 378.81 80.48 379.88C82.92 383.5 80.1 388.59 81.48 392.71C82.54 395.71 85.73 397.71 86.59 400.82C87.25 403.2 86.48 406.1 88.1 407.97C88.901 408.687 89.7682 409.327 90.69 409.88C91.4922 410.521 92.1028 411.371 92.4555 412.335C92.8082 413.3 92.8893 414.342 92.69 415.35C92.4725 416.336 91.953 417.23 91.2039 417.908C90.4547 418.585 89.5132 419.012 88.51 419.13" fill="#3FA4DD"/>
<g opacity="0.5">
<path d="M90.78 409.9C89.8582 409.347 88.991 408.707 88.19 407.99C86.57 406.12 87.34 403.22 86.68 400.84C85.82 397.74 82.68 395.77 81.57 392.73C80.14 388.61 82.96 383.52 80.57 379.9C79.85 378.83 78.76 378.07 77.98 377.05C74.98 373.1 77.38 366.72 74.23 362.86C72.03 360.17 67.76 359.66 65.96 356.69C64.47 354.23 65.23 351.11 65.26 348.24C65.2745 346.063 64.8376 343.906 63.9771 341.906C63.1165 339.906 61.8509 338.106 60.26 336.62C58.69 335.18 56.8 334.05 55.56 332.32C53.65 329.67 53.32 325.74 50.56 324.09C51.72 327.02 49.78 330.25 49.85 333.41C49.94 337.2 52.91 340.41 53.3 344.17C53.55 346.63 52.69 349.04 52.24 351.47C51.79 353.9 51.86 356.69 53.59 358.47C54.4295 359.124 55.2339 359.822 56 360.56C58 363.09 55.91 366.88 56.7 370.02C57.49 373.16 61.02 375.02 61.88 378.14C62.69 381.07 60.88 384.32 61.88 387.19C62.82 389.86 65.88 391.27 67.13 393.8C68.77 397.06 67.13 401.35 69.13 404.42C70.21 406.12 72.22 407.1 73.19 408.87C74.3 410.87 73.73 413.43 74.03 415.73C74.33 418.03 76.51 420.57 78.6 419.55L88.6 419.12C89.6268 419.039 90.6014 418.635 91.3832 417.964C92.1651 417.294 92.7137 416.392 92.95 415.39C93.1343 414.364 93.0289 413.306 92.6455 412.336C92.2622 411.367 91.6162 410.523 90.78 409.9Z" fill="white"/>
</g>
<path d="M87.09 409.52C86.0487 408.91 85.1997 408.019 84.64 406.95C84.2 405.67 85.64 403.56 84.99 401.31C84.2 398.4 80.54 394.52 79.59 391.67C78.31 387.79 80.65 383.47 78.59 380.07C77.97 379.07 76.59 376.26 75.93 375.3C73.37 371.6 75.35 367.05 72.68 363.44C70.82 360.91 66.22 359.29 64.68 356.51C63.4 354.2 63.92 351.27 63.86 348.56C63.774 344.504 62.1929 340.622 59.42 337.66C58.11 336.32 56.55 335.25 55.49 333.66C53.86 331.17 53.49 327.49 51.15 325.94C52.15 328.7 50.7 331.74 50.86 334.7C51.05 338.27 53.55 341.27 53.98 344.81C54.26 347.12 53.63 349.39 53.34 351.67C53.05 353.95 53.19 356.58 54.65 358.23C55.28 358.94 56.1 359.41 56.65 360.23C58.35 362.6 56.76 366.17 57.5 369.11C58.24 372.05 61.15 373.8 61.94 376.73C62.69 379.49 62.15 384.1 63.05 386.79C63.9 389.31 66.79 389.64 67.9 392.02C69.32 395.07 68.35 400.26 70.03 403.14C70.97 404.73 72.6 404.5 73.44 406.14C74.44 408.06 74.9 412.65 75.21 414.82C75.3002 415.825 75.6524 416.789 76.2314 417.615C76.8105 418.442 77.5961 419.102 78.51 419.53L89.64 419C92.51 414.98 90.2 411.29 87.09 409.52Z" fill="#3FA4DD"/>
<path d="M56.32 340.39C56.32 340.39 56.32 340.44 56.45 340.57L56.77 341.13C57.05 341.63 57.46 342.37 57.9 343.36C58.4588 344.552 58.8267 345.824 58.99 347.13C59.0374 348.883 58.8558 350.634 58.45 352.34C58.2609 353.331 58.2609 354.349 58.45 355.34C58.6781 356.407 59.0983 357.423 59.69 358.34C60.88 360.26 62.63 361.97 64.16 364.05C64.9788 365.108 65.5958 366.308 65.98 367.59C66.1623 368.265 66.2498 368.961 66.24 369.66C66.1742 370.325 66.1508 370.993 66.17 371.66C66.4157 373.018 67.0842 374.264 68.08 375.22C68.55 375.76 69.08 376.31 69.47 376.92C69.8893 377.54 70.2255 378.213 70.47 378.92C70.9321 380.325 71.2143 381.784 71.31 383.26C71.4058 384.664 71.5928 386.06 71.87 387.44C72.1766 388.772 72.7516 390.028 73.56 391.13C74.3501 392.186 75.0209 393.326 75.56 394.53C75.9696 395.731 76.1823 396.991 76.19 398.26C76.2066 399.422 76.3679 400.578 76.67 401.7C77.37 403.82 78.94 405.37 79.85 407.11C80.6003 408.69 81.0996 410.377 81.33 412.11C81.5227 413.406 81.858 414.677 82.33 415.9C82.6387 416.662 83.1136 417.345 83.72 417.9C83.9578 418.066 84.1849 418.246 84.4 418.44C84.1423 418.307 83.8978 418.15 83.67 417.97C83.0197 417.431 82.5057 416.745 82.17 415.97C81.6821 414.733 81.3333 413.445 81.13 412.13C80.8854 410.418 80.376 408.755 79.62 407.2C78.73 405.52 77.12 403.99 76.36 401.75C75.6 399.51 76.13 396.96 75.22 394.62C74.6759 393.447 74.0053 392.337 73.22 391.31C72.405 390.176 71.8237 388.891 71.51 387.53C70.86 384.78 71.1 381.81 70.12 379.07C69.8717 378.399 69.5354 377.763 69.12 377.18C68.71 376.6 68.23 376.06 67.76 375.51C66.7032 374.487 66.0022 373.151 65.76 371.7C65.7422 371.003 65.7656 370.305 65.83 369.61C65.849 368.936 65.7716 368.262 65.6 367.61C65.2265 366.377 64.6337 365.222 63.85 364.2C62.36 362.2 60.61 360.42 59.4 358.45C58.7962 357.505 58.3692 356.458 58.14 355.36C57.95 354.342 57.95 353.298 58.14 352.28C58.5666 350.601 58.7717 348.873 58.75 347.14C58.6107 345.843 58.2735 344.575 57.75 343.38C57.33 342.38 56.95 341.64 56.75 341.12C56.64 340.89 56.54 340.7 56.47 340.54C56.4155 340.495 56.3653 340.445 56.32 340.39Z" fill="#263238"/>
<path d="M123.97 398.96H57.25V410.79H123.97V398.96Z" fill="#455A64"/>
<path d="M62.23 408.44L70.34 443.78H110.11L118.99 408.44H62.23Z" fill="#455A64"/>
<path d="M123.93 410.8C123.93 410.93 108.93 411.04 90.32 411.04C71.71 411.04 56.71 410.93 56.71 410.8C56.71 410.67 71.71 410.57 90.32 410.57C108.93 410.57 123.93 410.67 123.93 410.8Z" fill="#263238"/>
<path d="M426.38 340.6C426.38 340.6 403.8 350.9 381.84 350.9C361.51 350.9 338.76 340.66 338.76 340.66L426.38 340.6Z" fill="#E0E0E0"/>
<path d="M379.54 432.8H388.25V341.58H379.54V432.8Z" fill="#E0E0E0"/>
<path d="M344.85 434.37H422.15V429.02H344.85V434.37Z" fill="#E0E0E0"/>
<path d="M413.09 436.67C413.088 437.837 413.432 438.979 414.079 439.951C414.727 440.922 415.647 441.68 416.725 442.128C417.803 442.576 418.99 442.694 420.135 442.468C421.28 442.241 422.332 441.68 423.158 440.855C423.984 440.031 424.547 438.98 424.776 437.835C425.004 436.69 424.888 435.503 424.442 434.425C423.996 433.346 423.239 432.424 422.269 431.775C421.298 431.126 420.157 430.78 418.99 430.78C417.427 430.78 415.928 431.4 414.822 432.505C413.715 433.609 413.093 435.107 413.09 436.67Z" fill="#263238"/>
<path d="M378.74 436.67C378.738 437.837 379.082 438.979 379.729 439.951C380.377 440.922 381.297 441.68 382.375 442.128C383.453 442.576 384.64 442.694 385.785 442.468C386.93 442.241 387.982 441.68 388.808 440.855C389.634 440.031 390.197 438.98 390.426 437.835C390.654 436.69 390.538 435.503 390.092 434.425C389.646 433.346 388.889 432.424 387.919 431.775C386.948 431.126 385.807 430.78 384.64 430.78C383.077 430.78 381.578 431.4 380.472 432.505C379.365 433.609 378.743 435.107 378.74 436.67Z" fill="#263238"/>
<path d="M338.96 436.67C338.958 437.837 339.302 438.979 339.949 439.951C340.597 440.922 341.517 441.68 342.595 442.128C343.673 442.576 344.86 442.694 346.005 442.468C347.15 442.241 348.202 441.68 349.028 440.855C349.855 440.031 350.417 438.98 350.646 437.835C350.874 436.69 350.758 435.503 350.312 434.425C349.866 433.346 349.109 432.424 348.139 431.775C347.168 431.126 346.027 430.78 344.86 430.78C343.297 430.78 341.798 431.4 340.692 432.505C339.585 433.609 338.963 435.107 338.96 436.67Z" fill="#263238"/>
<path d="M381.85 379.31H393.7V374.41H381.85V379.31Z" fill="#E0E0E0"/>
<path d="M391.54 382.74H395.85V370.97H391.54V382.74Z" fill="#E0E0E0"/>
<path d="M334.88 340.6H433.51C435.247 340.6 436.913 339.91 438.142 338.682C439.37 337.453 440.06 335.787 440.06 334.05C440.06 332.313 439.37 330.647 438.142 329.418C436.913 328.19 435.247 327.5 433.51 327.5H334.88C333.143 327.5 331.477 328.19 330.248 329.418C329.02 330.647 328.33 332.313 328.33 334.05C328.33 335.787 329.02 337.453 330.248 338.682C331.477 339.91 333.143 340.6 334.88 340.6Z" fill="#455A64"/>
<path d="M425.75 168.2C425.75 168.2 433.69 165.1 433.36 158.33C433.03 151.56 423.91 144.86 424.45 134.7C424.96 125.16 411.3 96.8301 391.79 106.7C388.518 106.276 385.196 106.459 381.99 107.24C375.7 109.04 373.74 115.06 369.99 121.02C364.26 130.22 360.35 137.47 363.12 143.88C365.89 150.29 367.05 152.17 364.9 157.64C362.1 164.78 359.23 162.71 360.17 168.95L377.17 169.22L378.78 165.06L378.96 169.56L388.96 169.43L425.75 168.2Z" fill="#263238"/>
<path d="M377.22 116.71C377.43 119.34 375.71 121.71 373.97 123.71C372.23 125.71 370.3 127.71 369.97 130.36C369.33 134.98 373.87 139.25 372.97 143.83C372.49 146.28 370.49 148.26 370.14 150.74C369.79 153.22 371.14 155.47 372.71 157.29C374.28 159.11 376.25 160.61 377.71 162.58C377.71 162.58 380.66 167.37 389.71 164.25" fill="#263238"/>
<path d="M384.96 113.37L407.39 118.13C408.438 118.198 409.421 118.657 410.146 119.417C410.87 120.176 411.282 121.181 411.3 122.23L411.03 170.78C411.012 174.098 409.901 177.317 407.87 179.94L405.73 182.7C400.85 188.99 390.97 188.35 387.24 181.32C387.013 180.922 386.841 180.495 386.73 180.05C386.638 179.688 386.567 179.321 386.52 178.95L386.09 174.22C385.87 169.9 385.84 165.5 385.84 165.54C385.84 165.58 376.66 164.38 374.3 152.54C373.13 146.66 373.06 136.94 373.25 128.99C373.42 121.83 377.81 112.89 384.96 113.37Z" fill="#FFBE9D"/>
<path d="M376.66 138.13C376.673 138.528 376.84 138.906 377.125 139.183C377.41 139.461 377.792 139.618 378.19 139.62C378.389 139.627 378.587 139.593 378.773 139.521C378.958 139.449 379.127 139.34 379.269 139.201C379.411 139.061 379.524 138.895 379.599 138.711C379.675 138.527 379.713 138.329 379.71 138.13C379.697 137.732 379.531 137.355 379.245 137.077C378.96 136.799 378.578 136.642 378.18 136.64C377.981 136.633 377.783 136.667 377.597 136.739C377.412 136.811 377.243 136.92 377.101 137.059C376.959 137.199 376.846 137.365 376.771 137.549C376.695 137.734 376.657 137.931 376.66 138.13Z" fill="#263238"/>
<path d="M375.51 133.96C375.71 134.15 376.83 133.25 378.51 133.19C380.19 133.13 381.39 133.91 381.56 133.7C381.73 133.49 381.44 133.25 380.9 132.89C380.169 132.428 379.314 132.201 378.45 132.24C377.594 132.264 376.769 132.566 376.1 133.1C375.61 133.51 375.45 133.87 375.51 133.96Z" fill="#263238"/>
<path d="M391.38 137.73C391.393 138.128 391.559 138.506 391.845 138.783C392.13 139.061 392.512 139.218 392.91 139.22C393.106 139.228 393.301 139.197 393.484 139.129C393.667 139.06 393.835 138.956 393.978 138.822C394.12 138.688 394.235 138.526 394.314 138.348C394.393 138.169 394.436 137.976 394.44 137.78C394.427 137.381 394.259 137.003 393.971 136.727C393.683 136.45 393.299 136.297 392.9 136.3C392.706 136.292 392.512 136.323 392.33 136.391C392.148 136.459 391.981 136.562 391.839 136.695C391.698 136.829 391.584 136.989 391.505 137.166C391.426 137.344 391.384 137.536 391.38 137.73Z" fill="#263238"/>
<path d="M391.15 133.56C391.34 133.75 392.47 132.85 394.15 132.79C395.83 132.73 397.03 133.51 397.15 133.3C397.27 133.09 397.03 132.85 396.49 132.49C395.76 132.025 394.904 131.798 394.04 131.84C393.184 131.864 392.359 132.166 391.69 132.7C391.21 133.13 391.05 133.47 391.15 133.56Z" fill="#263238"/>
<path d="M386.22 146.05C385.342 145.816 384.439 145.688 383.53 145.67C383.11 145.67 382.71 145.58 382.63 145.3C382.58 144.867 382.66 144.428 382.86 144.04C383.22 143.04 383.59 141.93 383.98 140.8C385.52 136.18 386.62 132.4 386.44 132.34C386.26 132.28 384.85 135.97 383.3 140.58L382.24 143.84C381.997 144.359 381.941 144.945 382.08 145.5C382.15 145.644 382.251 145.77 382.375 145.87C382.5 145.97 382.645 146.042 382.8 146.08C383.033 146.135 383.271 146.158 383.51 146.15C384.414 146.238 385.325 146.204 386.22 146.05Z" fill="#263238"/>
<path d="M385.84 165.53C391.447 165.401 396.907 163.715 401.61 160.66C401.61 160.66 397.93 169.06 385.97 168.41L385.84 165.53Z" fill="#EB996E"/>
<path d="M387.07 149.98C387.37 149.578 387.766 149.257 388.222 149.047C388.678 148.838 389.179 148.746 389.68 148.78C390.043 148.8 390.398 148.892 390.725 149.052C391.051 149.212 391.342 149.436 391.58 149.71C391.811 149.974 391.955 150.303 391.992 150.652C392.03 151.001 391.959 151.353 391.79 151.66C391.537 151.964 391.2 152.186 390.821 152.298C390.441 152.41 390.038 152.407 389.66 152.29C388.873 152.052 388.141 151.658 387.51 151.13C387.321 151.002 387.155 150.844 387.02 150.66C386.959 150.57 386.926 150.464 386.926 150.355C386.926 150.246 386.959 150.14 387.02 150.05" fill="#EB996E"/>
<path d="M391.1 147C390.83 147 390.89 148.78 389.42 150.1C387.95 151.42 386.04 151.31 386.03 151.55C386.02 151.79 386.47 151.89 387.27 151.88C388.315 151.848 389.316 151.452 390.1 150.76C390.849 150.095 391.314 149.168 391.4 148.17C391.43 147.42 391.22 146.99 391.1 147Z" fill="#263238"/>
<path d="M391.24 128.68C391.42 129.12 393.05 128.85 394.99 129C396.93 129.15 398.5 129.63 398.74 129.22C398.85 129.02 398.56 128.61 397.92 128.22C397.061 127.715 396.095 127.42 395.1 127.36C394.11 127.277 393.115 127.435 392.2 127.82C391.51 128.13 391.16 128.47 391.24 128.68Z" fill="#263238"/>
<path d="M375.75 126.76C376.05 127.12 377.17 126.69 378.53 126.62C379.89 126.55 381.05 126.77 381.3 126.37C381.41 126.18 381.21 125.81 380.7 125.47C380.007 125.069 379.21 124.885 378.411 124.942C377.612 124.999 376.849 125.294 376.22 125.79C375.75 126.19 375.61 126.58 375.75 126.76Z" fill="#263238"/>
<path d="M417.31 118.13C415.65 113.24 408.95 107.88 402.64 105.47C400.86 104.808 398.948 104.578 397.062 104.799C395.176 105.02 393.369 105.685 391.79 106.74L383.79 112.04C384.206 113.993 385.14 115.797 386.496 117.263C387.851 118.729 389.576 119.802 391.49 120.37C393.49 120.95 395.98 121.07 397.22 122.8C398.46 124.53 397.82 127.17 399.01 128.99C400.65 131.51 405.01 131.3 406.25 133.99C406.8 135.19 406.55 136.63 407.12 137.82C407.87 139.4 411.95 141.34 413.61 140.82C415.27 140.3 415.21 137.41 415.73 135.91C416.381 134.218 416.431 132.354 415.87 130.63C415.06 127.25 418.42 121.36 417.31 118.13Z" fill="#263238"/>
<path d="M408.7 142.29C408.7 141.4 409.61 139.29 410.48 139.1C412.81 138.65 417.03 138.67 417.3 144.61C417.67 152.72 409.44 151.42 409.42 151.19C409.4 150.96 408.81 145.35 408.7 142.29Z" fill="#FFBE9D"/>
<path d="M411.76 148C411.76 148 411.9 148.09 412.15 148.19C412.49 148.33 412.871 148.33 413.21 148.19C414.05 147.84 414.71 146.45 414.68 144.98C414.671 144.285 414.503 143.601 414.19 142.98C414.098 142.737 413.949 142.519 413.756 142.345C413.563 142.171 413.331 142.046 413.08 141.98C412.915 141.944 412.742 141.967 412.592 142.046C412.442 142.124 412.324 142.253 412.26 142.41C412.17 142.64 412.26 142.8 412.18 142.81C412.1 142.82 412 142.69 412.05 142.35C412.088 142.145 412.194 141.959 412.35 141.82C412.567 141.645 412.842 141.56 413.12 141.58C413.455 141.632 413.771 141.769 414.039 141.977C414.306 142.186 414.517 142.458 414.65 142.77C415.031 143.456 415.237 144.226 415.25 145.01C415.25 146.65 414.5 148.22 413.34 148.61C413.125 148.681 412.897 148.704 412.672 148.676C412.447 148.649 412.231 148.571 412.04 148.45C411.78 148.2 411.73 148.02 411.76 148Z" fill="#EB996E"/>
<path d="M356.18 203.52L341.83 240.95L314.83 242.67L310.66 254.4L346.3 261.31C346.3 261.31 357.02 264.43 363.13 250.82L373.58 213.59L356.18 203.52Z" fill="#FFBE9D"/>
<path d="M289.2 248.52C289.356 248.838 289.602 249.103 289.908 249.281C290.214 249.459 290.567 249.542 290.92 249.52C291.07 249.508 291.218 249.478 291.36 249.43C292.36 249.1 292.29 247.02 292.29 247.02L297.18 246.22C297.18 246.22 303.54 250.32 305.81 253.04C308.08 255.76 313.81 253.56 313.81 253.56L315.81 243.13L306.81 234.99C306.81 234.99 307.37 235.47 306.74 233.99C306.11 232.51 303.29 233.04 303.29 233.04C302.85 232.29 301 232.04 301 232.04L293.11 232.95C292.298 233.036 291.517 233.304 290.824 233.736C290.131 234.167 289.545 234.75 289.11 235.44L285.77 240.72C285.77 240.72 284 244.53 284.29 245.42C284.424 245.781 284.684 246.082 285.022 246.266C285.361 246.45 285.754 246.504 286.13 246.42C286.13 246.42 286.52 248.92 287.13 249.01C287.82 248.979 288.498 248.819 289.13 248.54L289.2 248.52Z" fill="#FFBE9D"/>
<path d="M304.08 251.36C303.912 251.256 303.754 251.135 303.61 251L302.29 249.94C300.629 248.65 298.896 247.455 297.1 246.36H297.21L292.32 247.19L292.49 246.98C292.505 247.382 292.474 247.785 292.4 248.18C292.336 248.618 292.141 249.026 291.84 249.35C291.659 249.513 291.432 249.618 291.19 249.65C290.966 249.7 290.734 249.7 290.51 249.65C290.036 249.58 289.603 249.342 289.29 248.98C289.211 248.89 289.141 248.793 289.08 248.69L289.03 248.61C288.97 248.61 289.57 248.81 289.32 248.71L289.16 248.77C288.96 248.85 288.75 248.93 288.53 249C288.31 249.066 288.086 249.12 287.86 249.16C287.74 249.171 287.62 249.171 287.5 249.16C287.345 249.177 287.189 249.149 287.05 249.08C286.83 248.915 286.663 248.689 286.57 248.43C286.474 248.212 286.39 247.988 286.32 247.76C286.191 247.303 286.087 246.839 286.01 246.37L286.3 246.57C285.967 246.643 285.621 246.624 285.299 246.515C284.976 246.406 284.69 246.21 284.47 245.95C284.244 245.667 284.127 245.312 284.14 244.95C284.159 244.631 284.216 244.316 284.31 244.01C284.676 242.806 285.127 241.63 285.66 240.49C286.22 239.59 286.83 238.64 287.44 237.67C287.82 237.07 288.19 236.47 288.57 235.88C288.917 235.261 289.33 234.681 289.8 234.15C290.309 233.643 290.914 233.242 291.58 232.97C292.222 232.732 292.896 232.591 293.58 232.55L301.03 231.72H301.09C301.533 231.792 301.968 231.906 302.39 232.06C302.846 232.198 303.246 232.478 303.53 232.86L303.25 232.77C303.653 232.586 304.095 232.503 304.537 232.527C304.98 232.552 305.41 232.683 305.79 232.91C306.449 233.392 306.9 234.107 307.05 234.91L306.99 234.81L313.19 240.39L314.86 241.93C315.063 242.1 315.25 242.287 315.42 242.49C315.194 242.353 314.983 242.192 314.79 242.01L313.05 240.55L306.72 235.13V235.07C306.583 234.371 306.187 233.749 305.61 233.33C305.287 233.143 304.924 233.036 304.551 233.021C304.178 233.005 303.807 233.08 303.47 233.24L303.3 233.31L303.2 233.15C302.959 232.864 302.639 232.655 302.28 232.55C301.884 232.409 301.475 232.306 301.06 232.24H301.12L293.68 233.12C293.034 233.156 292.397 233.287 291.79 233.51C291.191 233.757 290.647 234.121 290.19 234.58C289.745 235.089 289.353 235.642 289.02 236.23L287.89 238.02L286.11 240.84C285.592 241.955 285.151 243.105 284.79 244.28C284.705 244.55 284.651 244.828 284.63 245.11C284.622 245.354 284.704 245.592 284.86 245.78C285.022 245.969 285.232 246.11 285.468 246.19C285.704 246.269 285.957 246.283 286.2 246.23H286.44V246.47C286.513 246.916 286.613 247.357 286.74 247.79C286.812 248.183 286.988 248.549 287.25 248.85C287.316 248.867 287.384 248.867 287.45 248.85H287.75C287.957 248.814 288.16 248.764 288.36 248.7L288.96 248.49L289.11 248.44L289.4 248.55V248.62C289.448 248.703 289.505 248.78 289.57 248.85C289.81 249.134 290.143 249.322 290.51 249.38C290.688 249.415 290.872 249.415 291.05 249.38C291.213 249.365 291.367 249.299 291.49 249.19C291.902 248.609 292.093 247.9 292.03 247.19V247.01H292.2L297.1 246.25H297.16H297.21C299.002 247.374 300.715 248.616 302.34 249.97C302.91 250.45 303.34 250.83 303.61 251.1C303.774 251.172 303.932 251.259 304.08 251.36Z" fill="#EB996E"/>
<path d="M301.98 235.79C301.174 236.152 300.323 236.405 299.45 236.54C297.306 236.979 295.115 237.137 292.93 237.01L293.19 236.84C293.06 237.23 292.92 237.64 292.75 238.04C291.825 240.349 290.467 242.46 288.75 244.26C288.231 244.797 287.677 245.298 287.09 245.76C286.66 246.08 286.42 246.24 286.39 246.21C286.36 246.18 287.25 245.41 288.48 244.01C290.08 242.182 291.364 240.1 292.28 237.85C292.44 237.45 292.58 237.05 292.71 236.68L292.78 236.49H292.97C295.118 236.619 297.274 236.519 299.4 236.19C301 235.96 301.96 235.71 301.98 235.79Z" fill="#EB996E"/>
<path d="M294.51 240.39C294.215 242.008 293.528 243.529 292.51 244.82C291.653 246.216 290.455 247.372 289.03 248.18C288.93 248.06 290.59 246.68 292.09 244.52C293.59 242.36 294.34 240.34 294.51 240.39Z" fill="#EB996E"/>
<path d="M315.4 250.39C315.4 250.39 315.32 250.45 315.15 250.53C314.899 250.652 314.638 250.752 314.37 250.83C313.365 251.144 312.31 251.266 311.26 251.19C309.644 251.083 308.091 250.521 306.78 249.57C305.111 248.342 303.918 246.576 303.4 244.57L303.69 244.76C301.808 245.115 299.887 245.205 297.98 245.03C297.272 244.961 296.567 244.854 295.87 244.71C295.172 244.599 294.497 244.376 293.87 244.05C293.522 243.863 293.253 243.558 293.11 243.19C293.053 242.999 293.036 242.799 293.058 242.602C293.08 242.404 293.142 242.213 293.24 242.04C293.436 241.703 293.755 241.456 294.13 241.35L295.04 241.13C297.44 240.55 299.63 240.13 301.47 239.84C303.31 239.55 304.81 239.38 305.85 239.29C306.387 239.219 306.929 239.192 307.47 239.21C306.949 239.35 306.417 239.443 305.88 239.49C304.88 239.64 303.36 239.87 301.53 240.2C299.7 240.53 297.53 240.99 295.16 241.59L294.26 241.83C294.136 241.861 294.02 241.917 293.92 241.997C293.82 242.076 293.738 242.176 293.68 242.29C293.614 242.4 293.572 242.523 293.557 242.651C293.541 242.778 293.553 242.907 293.59 243.03C293.694 243.285 293.89 243.493 294.14 243.61C294.721 243.904 295.346 244.104 295.99 244.2C296.671 244.34 297.358 244.443 298.05 244.51C299.909 244.682 301.783 244.598 303.62 244.26H303.85L303.91 244.49C304.337 246.188 305.276 247.713 306.6 248.858C307.924 250.003 309.568 250.713 311.31 250.89C312.315 250.984 313.328 250.913 314.31 250.68C314.668 250.563 315.032 250.466 315.4 250.39Z" fill="#EB996E"/>
<path d="M306.13 384.25C306.063 383.957 306.063 383.653 306.13 383.36C306.264 382.545 306.571 381.767 307.03 381.08C307.183 380.842 307.364 380.624 307.57 380.43C307.7 380.305 307.862 380.218 308.038 380.177C308.214 380.137 308.398 380.145 308.57 380.2C308.674 380.237 308.768 380.296 308.846 380.374C308.924 380.452 308.983 380.546 309.02 380.65C309.084 380.848 309.084 381.062 309.02 381.26C308.884 381.574 308.727 381.878 308.55 382.17C308.2 382.76 307.91 383.35 307.46 384.01C307.326 384.199 307.144 384.348 306.933 384.443C306.722 384.538 306.49 384.575 306.26 384.55C305.837 384.478 305.439 384.303 305.1 384.04C304.47 383.586 303.897 383.059 303.39 382.47C303.15 382.18 302.93 381.89 302.72 381.59C302.487 381.294 302.317 380.954 302.22 380.59C302.173 380.376 302.197 380.153 302.289 379.954C302.381 379.755 302.536 379.592 302.73 379.49C302.917 379.437 303.113 379.433 303.302 379.476C303.491 379.52 303.666 379.611 303.81 379.74C304.242 380.121 304.625 380.554 304.95 381.03C305.423 381.692 305.797 382.42 306.06 383.19C306.185 383.464 306.253 383.76 306.26 384.06C305.811 383.074 305.269 382.133 304.64 381.25C304.322 380.826 303.956 380.44 303.55 380.1C303.464 380.023 303.362 379.968 303.25 379.938C303.139 379.909 303.023 379.906 302.91 379.93C302.815 379.985 302.743 380.07 302.704 380.172C302.666 380.275 302.665 380.387 302.7 380.49C302.791 380.787 302.941 381.062 303.14 381.3C303.342 381.584 303.559 381.858 303.79 382.12C304.272 382.674 304.815 383.171 305.41 383.6C305.671 383.818 305.985 383.963 306.32 384.02C306.46 384.039 306.603 384.017 306.732 383.959C306.861 383.901 306.971 383.808 307.05 383.69C307.42 383.15 307.78 382.48 308.12 381.92C308.294 381.664 308.444 381.393 308.57 381.11C308.66 380.85 308.57 380.69 308.43 380.61C308.03 380.45 307.63 380.91 307.35 381.3C306.766 382.201 306.353 383.2 306.13 384.25Z" fill="#263238"/>
<path d="M329.31 385.05L340.82 409.99L359.39 401.41L347.48 370.54L329.31 385.05Z" fill="#FFBE9D"/>
<path d="M338.64 408.32L345.36 421.13C345.36 421.13 328.15 438.93 329.77 442.91L370.23 423.51L359.11 397.8L338.64 408.32Z" fill="#455A64"/>
<path d="M357.04 413.39C357.479 413.334 357.924 413.438 358.291 413.685C358.659 413.931 358.925 414.303 359.04 414.73C359.114 415.167 359.02 415.616 358.777 415.987C358.534 416.357 358.16 416.623 357.73 416.73C357.257 416.802 356.774 416.696 356.374 416.431C355.975 416.167 355.689 415.764 355.57 415.3C355.525 414.824 355.666 414.349 355.965 413.976C356.264 413.603 356.696 413.36 357.17 413.3" fill="#E0E0E0"/>
<g opacity="0.6">
<path d="M370.23 423.52L368.51 420.29L330.38 440.13C330.38 440.13 328.96 441.78 329.77 442.95L370.23 423.52Z" fill="white"/>
</g>
<path d="M344.61 421.25C344.71 421.45 345.74 421.06 347.02 421.25C348.3 421.44 349.21 422 349.36 421.84C349.51 421.68 348.66 420.67 347.11 420.49C345.56 420.31 344.51 421.13 344.61 421.25Z" fill="#263238"/>
<path d="M341.21 425.04C341.21 425.25 342.27 425.18 343.34 425.69C344.41 426.2 345.03 427 345.22 426.9C345.41 426.8 345.01 425.62 343.66 425C342.31 424.38 341.12 424.85 341.21 425.04Z" fill="#263238"/>
<path d="M341.23 431.28C341.43 431.28 341.23 430.11 340.23 429.28C339.23 428.45 338.07 428.46 338.07 428.66C338.07 428.86 338.91 429.17 339.74 429.87C340.57 430.57 341.03 431.35 341.23 431.28Z" fill="#263238"/>
<path d="M342.68 416.31C342.85 416.45 343.63 415.75 344.78 415.31C345.93 414.87 346.97 414.78 346.99 414.56C347.01 414.34 345.84 414.04 344.49 414.56C343.14 415.08 342.51 416.2 342.68 416.31Z" fill="#263238"/>
<path d="M334.85 404.99L304.51 329.13C304.51 329.13 305.19 316.13 307.57 312.08C309.95 308.03 382.23 284.13 382.23 284.13C382.23 284.13 400.64 279.7 412.91 284.13C425.18 288.56 438.03 293.02 436.66 301.6C434.64 314.13 423.78 327.13 423.78 327.13L370.64 328.71L341.64 339.27L361.14 395.17L334.85 404.99Z" fill="#263238"/>
<path d="M307.87 353.12L307.19 380.58L327.64 381.08L330.58 348.12L307.87 353.12Z" fill="#FFBE9D"/>
<path d="M305.97 378.13L306.34 392.61C306.34 392.61 283.04 400.98 282.74 405.26L327.6 405.71L328.98 377.71L305.97 378.13Z" fill="#455A64"/>
<path d="M320.23 390.79C320.661 390.927 321.027 391.217 321.258 391.606C321.488 391.996 321.567 392.456 321.48 392.9C321.356 393.33 321.073 393.696 320.688 393.924C320.304 394.153 319.847 394.226 319.41 394.13C318.952 393.986 318.565 393.677 318.322 393.263C318.08 392.849 318.001 392.36 318.1 391.89C318.273 391.451 318.608 391.096 319.037 390.898C319.466 390.7 319.954 390.676 320.4 390.83" fill="#E0E0E0"/>
<g opacity="0.6">
<path d="M327.6 405.7L327.52 402.07L284.52 402.99C284.52 402.99 282.52 403.84 282.73 405.25L327.6 405.7Z" fill="white"/>
</g>
<path d="M305.62 392.36C305.62 392.58 306.72 392.69 307.79 393.36C308.86 394.03 309.42 395.01 309.63 394.92C309.84 394.83 309.51 393.57 308.2 392.73C306.89 391.89 305.57 392.13 305.62 392.36Z" fill="#263238"/>
<path d="M300.89 394.26C300.84 394.47 301.78 394.85 302.52 395.79C303.26 396.73 303.46 397.7 303.68 397.7C303.9 397.7 304.05 396.45 303.11 395.31C302.17 394.17 300.9 394.05 300.89 394.26Z" fill="#263238"/>
<path d="M298.16 399.86C298.36 399.86 298.68 398.86 298.16 397.62C297.64 396.38 296.59 395.92 296.49 396.1C296.39 396.28 297.02 396.93 297.49 397.93C297.96 398.93 297.94 399.84 298.16 399.86Z" fill="#263238"/>
<path d="M306.07 387.13C306.16 387.33 307.16 387.03 308.4 387.13C309.64 387.23 310.6 387.63 310.72 387.44C310.84 387.25 309.91 386.44 308.45 386.37C306.99 386.3 305.96 386.9 306.07 387.13Z" fill="#263238"/>
<path d="M319.81 276.88C319.81 276.88 307.56 275.88 306.2 289.2C304.84 302.52 303.51 364.53 303.51 364.53L332.15 366.91L336.58 303.51L382.23 284.13C382.23 284.13 327.99 275.18 319.81 276.88Z" fill="#263238"/>
<path d="M370.31 258.94C370.31 258.94 362.88 279.79 364.31 282.11C365.74 284.43 384.85 294 384.85 294L432.7 312.37C432.7 312.37 437.61 304.56 437.61 292.55C437.61 280.54 420.97 258.94 420.97 258.94H370.31Z" fill="#263238"/>
<path d="M384.51 283.02L384.28 283.14L383.6 283.46L380.95 284.63L371.01 288.97L336.67 303.75L336.82 303.53C336.39 309.79 335.92 316.53 335.43 323.53C334.27 339.89 333.2 354.97 332.35 366.91V367.12H332.14L311.28 365.29L305.54 364.76L304.03 364.6C303.859 364.586 303.689 364.563 303.52 364.53C303.693 364.515 303.867 364.515 304.04 364.53L305.55 364.62L311.3 365.04L332.17 366.69L331.94 366.89C332.76 354.95 333.8 339.89 334.94 323.51C335.43 316.51 335.94 309.75 336.35 303.51V303.36L336.5 303.3L370.91 288.69L380.91 284.49L383.6 283.39L384.29 283.12C384.358 283.076 384.432 283.043 384.51 283.02Z" fill="#455A64"/>
<path d="M422.51 285.13C422.053 285.048 421.604 284.924 421.17 284.76L417.56 283.6C413.647 282.267 409.634 281.247 405.56 280.55C401.466 279.88 397.286 279.934 393.21 280.71C391.539 281.099 389.89 281.577 388.27 282.14C388.656 281.881 389.073 281.669 389.51 281.51C390.682 281.02 391.893 280.628 393.13 280.34C397.242 279.44 401.488 279.331 405.64 280.02C409.762 280.714 413.809 281.792 417.73 283.24C419.24 283.77 420.45 284.24 421.29 284.56C421.716 284.706 422.125 284.897 422.51 285.13Z" fill="#455A64"/>
<path d="M415.79 274.13C414.395 274.042 412.995 274.042 411.6 274.13C410.31 274.22 408.78 274.42 407.07 274.62C405.36 274.82 403.5 275.05 401.56 275.42C398.236 275.951 395.049 277.13 392.18 278.89C391.04 279.691 389.954 280.566 388.93 281.51C389.118 281.177 389.354 280.874 389.63 280.61C390.336 279.861 391.12 279.19 391.97 278.61C394.835 276.718 398.07 275.46 401.46 274.92C403.46 274.55 405.31 274.33 407.02 274.16C408.73 273.99 410.27 273.83 411.58 273.78C412.615 273.737 413.653 273.784 414.68 273.92C415.059 273.927 415.435 273.998 415.79 274.13Z" fill="#455A64"/>
<path d="M352.6 199.67C352.6 199.67 361.15 185.4 363.53 182.51C365.437 180.282 367.833 178.523 370.53 177.37C371.596 176.904 372.714 176.568 373.86 176.37L386.17 173.65C386.17 173.65 386.17 182.05 395 182.57C403.83 183.09 411.21 170.83 411.21 170.83C411.21 170.83 425.43 173.03 428.83 174.78C432.23 176.53 437.58 178.78 440.53 193.48L442.59 207.9L418.08 210.13L415.73 246.57L403.57 255.13C403.57 255.13 369.86 263.89 367.71 264.47C365.56 265.05 364.84 210.13 364.84 210.13C364.84 210.13 356.18 204.58 352.6 199.67Z" fill="#3FA4DD"/>
<path d="M368.73 193.54C368.539 193.874 368.382 194.225 368.26 194.59C367.98 195.28 367.62 196.29 367.26 197.59C365.197 204.21 364.347 211.148 364.75 218.07C364.83 219.4 364.93 220.47 365.04 221.2C365.068 221.583 365.135 221.961 365.24 222.33C365.288 221.948 365.288 221.562 365.24 221.18C365.19 220.44 365.14 219.38 365.11 218.06C364.902 211.183 365.741 204.314 367.6 197.69C367.95 196.42 368.26 195.4 368.48 194.69C368.614 194.32 368.699 193.933 368.73 193.54Z" fill="#263238"/>
<path d="M418.97 192.67C419.017 193.042 419.017 193.418 418.97 193.79C418.97 194.61 418.9 195.62 418.85 196.79C418.73 199.46 418.56 202.93 418.38 206.79C418.2 210.65 418 214.21 417.8 216.79C417.71 218.06 417.62 219.09 417.54 219.79C417.528 220.162 417.47 220.532 417.37 220.89C417.318 220.522 417.318 220.148 417.37 219.78C417.37 218.95 417.43 217.94 417.47 216.78C417.58 214.1 417.73 210.64 417.89 206.78C418.05 202.92 418.3 199.36 418.51 196.78C418.62 195.5 418.72 194.47 418.8 193.78C418.814 193.405 418.871 193.032 418.97 192.67Z" fill="#263238"/>
<path d="M369.78 253.22L415.95 243.22L418.08 210.22L438.61 208.33C438.61 208.33 437.17 230.84 437.06 237.59C436.76 257.05 430.22 260.4 426.89 263.03C423.56 265.66 367.71 264.47 367.71 264.47L369.78 253.22Z" fill="#FFBE9D"/>
<path d="M343.57 259.2C343.726 259.518 343.972 259.783 344.278 259.961C344.584 260.139 344.937 260.222 345.29 260.2C345.443 260.181 345.594 260.148 345.74 260.1C346.74 259.78 346.67 257.7 346.67 257.7L351.56 256.9C351.56 256.9 357.92 261 360.18 263.72C362.44 266.44 368.18 264.24 368.18 264.24L370.18 253.81L361.18 245.67C361.18 245.67 361.73 246.15 361.11 244.67C360.49 243.19 357.66 243.72 357.66 243.72C357.22 242.97 355.37 242.72 355.37 242.72L347.47 243.63C346.66 243.715 345.879 243.983 345.186 244.412C344.494 244.842 343.907 245.422 343.47 246.11L340.13 251.4C340.13 251.4 338.37 255.21 338.65 256.09C338.782 256.453 339.042 256.755 339.381 256.939C339.72 257.123 340.114 257.177 340.49 257.09C340.49 257.09 340.88 259.6 341.54 259.68C342.214 259.649 342.876 259.49 343.49 259.21L343.57 259.2Z" fill="#FFBE9D"/>
<path d="M360.39 251.71C360.39 251.8 359.33 251.71 357.64 251.77C355.445 251.875 353.274 252.282 351.19 252.98C350.047 253.364 348.937 253.839 347.87 254.4C346.92 254.94 345.92 255.4 345.61 256.07C345.545 256.223 345.519 256.391 345.534 256.557C345.55 256.722 345.607 256.882 345.7 257.02C345.845 257.243 346.054 257.418 346.3 257.52C346.523 257.591 346.756 257.625 346.99 257.62C346.99 257.62 346.74 257.84 346.23 257.7C345.927 257.613 345.661 257.43 345.47 257.18C345.335 257.007 345.247 256.802 345.214 256.585C345.181 256.368 345.204 256.146 345.28 255.94C345.496 255.479 345.844 255.093 346.28 254.83C346.71 254.55 347.16 254.26 347.66 253.99C350.721 252.298 354.162 251.414 357.66 251.42C358.579 251.381 359.499 251.478 360.39 251.71Z" fill="#EB996E"/>
<path d="M360.94 256.75C360.94 256.9 357.72 256.75 353.77 257C349.82 257.25 346.64 257.71 346.61 257.56C347.273 257.307 347.965 257.139 348.67 257.06C350.349 256.78 352.041 256.59 353.74 256.49C355.439 256.394 357.141 256.394 358.84 256.49C359.548 256.482 360.255 256.57 360.94 256.75Z" fill="#EB996E"/>
<path d="M343.62 259C343.551 258.725 343.517 258.443 343.52 258.16C343.469 257.391 343.469 256.619 343.52 255.85C343.545 255.311 343.618 254.776 343.74 254.25C343.881 253.632 344.142 253.047 344.51 252.53C345.301 251.341 346.321 250.321 347.51 249.53C348.676 248.723 349.948 248.08 351.29 247.62C352.4 247.305 353.546 247.133 354.7 247.11C355.7 247.11 356.47 247.11 357.01 247.11C357.293 247.097 357.576 247.127 357.85 247.2C356.813 247.351 355.768 247.437 354.72 247.46C353.604 247.539 352.5 247.743 351.43 248.07C350.142 248.532 348.921 249.164 347.8 249.95C346.669 250.719 345.695 251.696 344.93 252.83C344.319 253.749 343.973 254.818 343.93 255.92C343.68 257.79 343.73 259.01 343.62 259Z" fill="#EB996E"/>
<path d="M355.03 244.67C355.03 244.75 353.85 244.78 351.96 245C350.07 245.22 347.23 245.41 345.58 247.91C343.968 249.783 342.622 251.87 341.58 254.11C341.237 255.084 340.986 256.089 340.83 257.11C340.781 256.832 340.781 256.548 340.83 256.27C340.873 255.505 341.028 254.75 341.29 254.03C342.242 251.702 343.566 249.544 345.21 247.64C345.656 247.061 346.174 246.54 346.75 246.09C347.311 245.685 347.941 245.387 348.61 245.21C349.706 244.923 350.829 244.746 351.96 244.68C352.979 244.547 354.01 244.544 355.03 244.67Z" fill="#EB996E"/>
<path d="M358.51 262.05C358.342 261.946 358.184 261.825 358.04 261.69L356.71 260.63C355.051 259.338 353.318 258.142 351.52 257.05H351.64L346.75 257.89L346.92 257.68C346.931 258.079 346.898 258.478 346.82 258.87C346.762 259.31 346.57 259.722 346.27 260.05C346.087 260.211 345.861 260.316 345.62 260.35C345.392 260.395 345.158 260.395 344.93 260.35C344.46 260.278 344.031 260.04 343.72 259.68C343.641 259.588 343.568 259.491 343.5 259.39V259.31L343.79 259.41L343.63 259.47C343.42 259.55 343.21 259.63 343 259.69C342.781 259.762 342.557 259.819 342.33 259.86C342.21 259.87 342.09 259.87 341.97 259.86C341.811 259.878 341.65 259.847 341.51 259.77C341.296 259.603 341.131 259.382 341.03 259.13C340.94 258.9 340.86 258.68 340.79 258.45C340.661 257.996 340.557 257.535 340.48 257.07L340.76 257.27C340.429 257.342 340.084 257.323 339.764 257.213C339.443 257.104 339.158 256.909 338.94 256.65C338.712 256.367 338.592 256.013 338.6 255.65C338.628 255.328 338.688 255.01 338.78 254.7C339.14 253.497 339.591 252.324 340.13 251.19L341.91 248.37L343.04 246.58C343.388 245.959 343.804 245.379 344.28 244.85C344.785 244.342 345.387 243.94 346.05 243.67C346.693 243.434 347.367 243.292 348.05 243.25L355.49 242.41H355.55C355.998 242.476 356.437 242.59 356.86 242.75C357.312 242.884 357.709 243.161 357.99 243.54L357.72 243.46C358.122 243.274 358.565 243.189 359.007 243.213C359.45 243.238 359.88 243.371 360.26 243.6C360.918 244.082 361.365 244.798 361.51 245.6L361.45 245.5L367.51 251.13L369.18 252.67C369.383 252.84 369.57 253.027 369.74 253.23C369.514 253.093 369.303 252.932 369.11 252.75L367.37 251.28C365.83 249.96 363.69 248.1 361.06 245.83V245.76C360.92 245.065 360.524 244.447 359.95 244.03C359.627 243.843 359.265 243.737 358.892 243.72C358.52 243.702 358.149 243.774 357.81 243.93L357.64 244.01L357.54 243.85C357.3 243.563 356.98 243.354 356.62 243.25C356.223 243.112 355.815 243.008 355.4 242.94H355.46L348.01 243.82C347.367 243.851 346.732 243.983 346.13 244.21C345.529 244.454 344.985 244.818 344.53 245.28C344.076 245.782 343.683 246.336 343.36 246.93C342.98 247.52 342.61 248.12 342.23 248.72C341.62 249.72 341.01 250.64 340.45 251.54C339.929 252.652 339.485 253.798 339.12 254.97C339.041 255.244 338.987 255.526 338.96 255.81C338.955 256.055 339.041 256.294 339.2 256.48C339.36 256.669 339.568 256.811 339.802 256.89C340.037 256.969 340.288 256.983 340.53 256.93H340.78V257.17C340.852 257.615 340.949 258.056 341.07 258.49C341.155 258.878 341.33 259.241 341.58 259.55C341.646 259.56 341.714 259.56 341.78 259.55H342.08C342.29 259.55 342.49 259.46 342.7 259.4L343.3 259.19L343.44 259.13C343.19 259.03 343.8 259.26 343.74 259.23V259.29C343.788 259.371 343.841 259.447 343.9 259.52C344.144 259.805 344.48 259.996 344.85 260.06C345.025 260.095 345.205 260.095 345.38 260.06C345.545 260.042 345.702 259.976 345.83 259.87C346.236 259.286 346.426 258.579 346.37 257.87V257.69H346.53L351.43 256.93H351.49H351.54C353.336 258.051 355.053 259.294 356.68 260.65C357.25 261.13 357.68 261.51 357.95 261.78C358.146 261.85 358.333 261.941 358.51 262.05Z" fill="#EB996E"/>
<path d="M402.19 276.28H394.43V277.99L411.43 443.82H420.5L402.19 276.28Z" fill="#455A64"/>
<path d="M402.19 276.28C402.19 276.28 402.19 276.58 402.27 277.15C402.35 277.72 402.42 278.58 402.53 279.69C402.76 281.92 403.11 285.19 403.53 289.4C404.43 297.83 405.74 310.03 407.36 325.15C410.63 355.35 415.16 397.21 420.22 443.85L420.48 443.56H411.41L411.67 443.79C403.67 365.74 396.82 299.7 394.49 277.99C394.49 277.2 394.49 276.73 394.49 276.28L394.42 276.35H400.28H401.71H402.18H401.73H400.32L394.42 276.3H394.34V278.09C396.46 299.83 403.16 365.88 411.16 443.93V444.17H420.75V443.88C415.61 397.18 411 355.27 407.67 325.02C405.98 309.94 404.67 297.77 403.67 289.35C403.2 285.16 402.83 281.92 402.58 279.7C402.45 278.61 402.35 277.78 402.29 277.2C402.23 276.62 402.19 276.28 402.19 276.28Z" fill="#263238"/>
<path d="M264.96 276.28H257.19V278.03L273.38 443.78H281.35L264.96 276.28Z" fill="#263238"/>
<path d="M434.64 277.99L157.79 278.29L157.69 270.98H434.64V277.99Z" fill="#455A64"/>
<path d="M196.73 276.28H204.5V278.03L188.32 443.78H180.34L196.73 276.28Z" fill="#455A64"/>
<path d="M196.38 278.45C196.38 278.45 196.38 278.74 196.32 279.31C196.26 279.88 196.19 280.71 196.09 281.8C195.88 284 195.58 287.22 195.18 291.37C194.39 299.68 193.23 311.71 191.8 326.61C188.91 356.38 184.91 397.61 180.45 443.61L180.23 443.37H188.23L188.01 443.56C195.57 366.82 202.01 301.81 204.11 280.22V278.46L204.17 278.52H198.31H196.86H198.28H204.17H204.23V278.58C204.23 279.04 204.23 279.52 204.23 280.34C202.14 301.94 195.86 366.96 188.43 443.72V443.91H180.01V443.67C184.54 397.67 188.61 356.37 191.55 326.56C193.03 311.69 194.23 299.68 195.06 291.39C195.48 287.26 195.8 284.05 196.06 281.87C196.17 280.79 196.26 279.97 196.32 279.41L196.38 278.45Z" fill="#263238"/>
<path d="M308.92 276.91H301.15V278.67L317.34 443.78H325.32L308.92 276.91Z" fill="#455A64"/>
<path d="M309.27 279.13C309.27 279.13 309.27 279.42 309.34 279.98C309.41 280.54 309.47 281.38 309.57 282.47C309.78 284.65 310.08 287.86 310.47 292C311.27 300.28 312.47 312.26 313.85 327.1C316.74 356.76 320.75 397.86 325.21 443.64L325.43 443.4H317.43L317.64 443.59C310.08 367.14 303.64 302.38 301.55 280.87V279.13H301.51H307.38H309.28H308.83H307.41H301.51H301.45V280.95C303.51 302.35 309.81 367.13 317.23 443.59V443.78H325.64V443.54C321.11 397.72 317.04 356.54 314.1 326.88C312.61 312.06 311.42 300.1 310.59 291.88C310.17 287.76 309.85 284.57 309.59 282.4C309.47 281.32 309.39 280.5 309.33 279.94C309.27 279.38 309.27 279.13 309.27 279.13Z" fill="#263238"/>
<path d="M433.61 278.04C433.61 277.9 377.79 277.79 308.95 277.79C240.11 277.79 184.28 277.9 184.28 278.04C184.28 278.18 240.09 278.29 308.95 278.29C377.81 278.29 433.61 278.18 433.61 278.04Z" fill="#263238"/>
<path d="M260.18 219.64L320.99 220.13C322.99 220.13 324.85 221.08 325.15 223.03L331.79 267.35H363.11C363.595 267.35 364.061 267.543 364.404 267.886C364.747 268.229 364.94 268.695 364.94 269.18C364.94 269.665 364.747 270.131 364.404 270.474C364.061 270.817 363.595 271.01 363.11 271.01H263.11L256.28 224.23C256.196 223.666 256.233 223.09 256.39 222.542C256.546 221.993 256.819 221.484 257.188 221.05C257.557 220.615 258.015 220.264 258.531 220.021C259.048 219.778 259.61 219.648 260.18 219.64Z" fill="#E0E0E0"/>
<path d="M260.18 219.64C259.844 219.619 259.507 219.649 259.18 219.73C258.247 219.949 257.424 220.495 256.86 221.27C256.443 221.839 256.185 222.509 256.11 223.21C256.089 224.049 256.162 224.888 256.33 225.71C256.59 227.5 256.88 229.57 257.21 231.88L262.85 271.03V271.19H263.01L360.07 271.25H362.68C363.155 271.294 363.633 271.204 364.06 270.99C364.493 270.746 364.826 270.356 365 269.89C365.168 269.426 365.165 268.916 364.991 268.454C364.817 267.992 364.483 267.608 364.05 267.37C363.629 267.151 363.152 267.06 362.68 267.11H331.68L331.92 267.31C329.52 251.44 327.29 236.63 325.29 223.31C325.232 222.418 324.826 221.585 324.16 220.99C323.499 220.441 322.693 220.094 321.84 219.99C321.026 219.909 320.208 219.883 319.39 219.91H317L307.84 219.85L291.57 219.75L268.51 219.63H260.72H262.31L268.51 219.72L291.67 219.98L307.94 220.14L317.1 220.22H319.49C320.288 220.196 321.086 220.223 321.88 220.3C322.661 220.409 323.395 220.735 324 221.24C324.296 221.504 324.536 221.823 324.708 222.18C324.88 222.537 324.979 222.924 325 223.32L331.56 267.32V267.52H362.71C363.1 267.475 363.495 267.541 363.85 267.71C364.098 267.846 364.305 268.047 364.449 268.29C364.594 268.534 364.67 268.812 364.67 269.095C364.67 269.378 364.594 269.656 364.449 269.9C364.305 270.143 364.098 270.344 363.85 270.48C363.496 270.653 363.101 270.722 362.71 270.68H360.1L263.04 270.74L263.23 270.9C260.79 254.44 258.81 241.06 257.43 231.77L256.5 225.61C256.331 224.801 256.247 223.976 256.25 223.15C256.338 222.337 256.672 221.571 257.209 220.954C257.745 220.337 258.457 219.9 259.25 219.7C259.559 219.662 259.869 219.642 260.18 219.64Z" fill="#263238"/>
<path d="M296.97 244.76C296.97 245.514 296.746 246.251 296.327 246.878C295.908 247.505 295.312 247.993 294.616 248.281C293.919 248.569 293.152 248.644 292.413 248.496C291.674 248.348 290.995 247.984 290.462 247.451C289.93 246.917 289.568 246.237 289.422 245.497C289.276 244.758 289.353 243.991 289.643 243.295C289.933 242.599 290.423 242.005 291.051 241.587C291.678 241.17 292.416 240.948 293.17 240.95C294.179 240.953 295.145 241.355 295.858 242.07C296.57 242.784 296.97 243.751 296.97 244.76Z" fill="white"/>
<path d="M329.33 270.6C329.24 270.6 327.33 259.32 325 245.39C322.67 231.46 320.91 220.15 321 220.13C321.09 220.11 323 231.4 325.33 245.34C327.66 259.28 329.41 270.58 329.33 270.6Z" fill="#263238"/>
</svg>
