<svg width="46" height="46" viewBox="0 0 46 46" fill="none" xmlns="http://www.w3.org/2000/svg">
<circle cx="23" cy="23" r="23" fill="#58A3AD"/>
<g clip-path="url(#clip0_207_92)">
<path d="M15.6667 13.2083C15.6667 14.7554 16.2812 16.2392 17.3752 17.3331C18.4692 18.4271 19.9529 19.0417 21.5 19.0417C23.0471 19.0417 24.5308 18.4271 25.6248 17.3331C26.7188 16.2392 27.3333 14.7554 27.3333 13.2083C27.3333 11.6612 26.7188 10.1775 25.6248 9.08354C24.5308 7.98958 23.0471 7.375 21.5 7.375C19.9529 7.375 18.4692 7.98958 17.3752 9.08354C16.2812 10.1775 15.6667 11.6612 15.6667 13.2083Z" stroke="white" stroke-width="2.75" stroke-linecap="round" stroke-linejoin="round"/>
<path d="M12.75 33.625V30.7083C12.75 29.1612 13.3646 27.6775 14.4585 26.5835C15.5525 25.4896 17.0362 24.875 18.5833 24.875H23.6875" stroke="white" stroke-width="2.75" stroke-linecap="round" stroke-linejoin="round"/>
<path d="M30.8625 25.7646C31.1469 25.4802 31.4845 25.2546 31.8561 25.1007C32.2277 24.9468 32.6259 24.8676 33.0281 24.8676C33.4303 24.8676 33.8286 24.9468 34.2002 25.1007C34.5717 25.2546 34.9094 25.4802 35.1937 25.7646C35.4781 26.049 35.7037 26.3866 35.8576 26.7582C36.0116 27.1298 36.0908 27.528 36.0908 27.9302C36.0908 28.3324 36.0116 28.7307 35.8576 29.1022C35.7037 29.4738 35.4781 29.8114 35.1937 30.0958L30.25 35.0833H25.875V30.7083L30.8625 25.7646Z" stroke="white" stroke-width="2.75" stroke-linecap="round" stroke-linejoin="round"/>
</g>
<defs>
<clipPath id="clip0_207_92">
<rect width="35" height="35" fill="white" transform="translate(4 3)"/>
</clipPath>
</defs>
</svg>
