<svg width="46" height="47" viewBox="0 0 46 47" fill="none" xmlns="http://www.w3.org/2000/svg">
<ellipse cx="23" cy="23.5" rx="23" ry="23.5" fill="#58A3AD"/>
<g clip-path="url(#clip0_207_93)">
<path d="M16.6667 13.2083C16.6667 14.7554 17.2812 16.2392 18.3752 17.3331C19.4692 18.4271 20.9529 19.0417 22.5 19.0417C24.0471 19.0417 25.5308 18.4271 26.6248 17.3331C27.7188 16.2392 28.3333 14.7554 28.3333 13.2083C28.3333 11.6612 27.7188 10.1775 26.6248 9.08354C25.5308 7.98958 24.0471 7.375 22.5 7.375C20.9529 7.375 19.4692 7.98958 18.3752 9.08354C17.2812 10.1775 16.6667 11.6612 16.6667 13.2083Z" stroke="white" stroke-width="2.75" stroke-linecap="round" stroke-linejoin="round"/>
<path d="M13.75 33.625V30.7083C13.75 29.1612 14.3646 27.6775 15.4585 26.5835C16.5525 25.4896 18.0362 24.875 19.5833 24.875H21.7708" stroke="white" stroke-width="2.75" stroke-linecap="round" stroke-linejoin="round"/>
<path d="M26.875 29.25C26.875 30.4103 27.3359 31.5231 28.1564 32.3436C28.9769 33.1641 30.0897 33.625 31.25 33.625C32.4103 33.625 33.5231 33.1641 34.3436 32.3436C35.1641 31.5231 35.625 30.4103 35.625 29.25C35.625 28.0897 35.1641 26.9769 34.3436 26.1564C33.5231 25.3359 32.4103 24.875 31.25 24.875C30.0897 24.875 28.9769 25.3359 28.1564 26.1564C27.3359 26.9769 26.875 28.0897 26.875 29.25Z" stroke="white" stroke-width="2.75" stroke-linecap="round" stroke-linejoin="round"/>
<path d="M34.4583 32.4583L37.0833 35.0833" stroke="white" stroke-width="2.75" stroke-linecap="round" stroke-linejoin="round"/>
</g>
<defs>
<clipPath id="clip0_207_93">
<rect width="35" height="35" fill="white" transform="translate(5 3)"/>
</clipPath>
</defs>
</svg>
